<svg width="32" height="29" viewBox="0 0 32 29" fill="none" xmlns="http://www.w3.org/2000/svg">
<rect width="32" height="29" fill="#E5E5E5"/>
<rect x="-157" y="-306" width="649" height="792" rx="14" fill="#121212"/>
<rect x="-26.7" y="-25.7" width="387.4" height="362.4" rx="4.7" stroke="white" stroke-opacity="0.5" stroke-width="0.6"/>
<path d="M31.2582 0L17.5273 10.1599L20.0807 4.17238L31.2582 0Z" fill="#E17726"/>
<path d="M0.773812 0.0117188L11.9214 4.17284L14.3459 10.2388L0.773812 0.0117188ZM25.7324 21.607L31.8013 21.7225L29.6803 28.9277L22.2749 26.8888L25.7324 21.607ZM6.26731 21.607L9.71194 26.8888L2.31906 28.9278L0.210938 21.7225L6.26731 21.607Z" fill="#E27625"/>
<path d="M14.0164 8.69387L14.2644 16.7042L6.84302 16.3666L8.95402 13.1819L8.98077 13.1512L14.0164 8.69387ZM17.9068 8.60449L23.0193 13.1515L23.0458 13.182L25.1568 16.3667L17.737 16.7042L17.9068 8.60449ZM9.92939 21.6304L13.9816 24.7877L9.27439 27.0604L9.92939 21.6304ZM22.0714 21.6299L22.7128 27.0605L18.0186 24.7875L22.0714 21.6299Z" fill="#E27625"/>
<path d="M18.1222 24.4905L22.8856 26.797L18.4547 28.9027L18.5007 27.511L18.1222 24.4905ZM13.8763 24.4915L13.5127 27.4882L13.5426 28.9011L9.10132 26.797L13.8763 24.4915Z" fill="#D5BFB2"/>
<path d="M12.5009 17.7498L13.7457 20.3658L9.50781 19.1243L12.5009 17.7498ZM19.4991 17.75L22.5063 19.1243L18.2546 20.3654L19.4991 17.75Z" fill="#233447"/>
<path d="M10.2534 21.6035L9.56835 27.2335L5.89673 21.7266L10.2534 21.6035ZM21.7471 21.6036L26.1039 21.7266L22.4185 27.2337L21.7471 21.6036ZM25.2641 16.0481L22.0935 19.2795L19.6489 18.1623L18.4785 20.6228L17.7112 16.3917L25.2641 16.0481ZM6.73448 16.0481L14.2889 16.3917L13.5215 20.6228L12.3509 18.1627L9.91923 19.2796L6.73448 16.0481Z" fill="#CC6228"/>
<path d="M6.52075 15.3852L10.108 19.0253L10.2323 22.6189L6.52075 15.3852ZM25.4829 15.3787L21.7646 22.6253L21.9046 19.0253L25.4829 15.3787ZM14.1134 15.6069L14.2578 16.5157L14.6145 18.7795L14.3851 25.7327L13.3008 20.147L13.3004 20.0893L14.1134 15.6069ZM17.8848 15.5943L18.6999 20.0893L18.6995 20.147L17.6124 25.7467L17.5694 24.346L17.3998 18.7383L17.8848 15.5943Z" fill="#E27525"/>
<path d="M22.2232 18.8809L22.1018 22.0031L18.3176 24.9515L17.5526 24.411L18.4101 19.9941L22.2232 18.8809ZM9.78931 18.8809L13.5892 19.9941L14.4467 24.411L13.6817 24.9515L9.89731 22.0029L9.78931 18.8809Z" fill="#F5841F"/>
<path d="M8.37744 26.1069L13.2189 28.4009L13.1984 27.4213L13.6036 27.0657H18.3953L18.8151 27.4201L18.7841 28.3989L23.5949 26.1127L21.2539 28.0472L18.4233 29.9913H13.5647L10.7359 28.0392L8.37744 26.1069Z" fill="#C0AC9D"/>
<path d="M17.7755 24.1848L18.46 24.6684L18.8611 27.8689L18.2806 27.3788H13.7211L13.1516 27.8788L13.5396 24.6687L14.2244 24.1848H17.7755Z" fill="#161616"/>
<path d="M30.3517 0.28125L32 5.22587L30.9706 10.2255L31.7036 10.7909L30.7118 11.5476L31.4573 12.1234L30.4701 13.0223L31.0761 13.4611L29.4679 15.3394L22.8716 13.4187L22.8145 13.3881L18.0611 9.37838L30.3517 0.28125ZM1.64825 0.28125L13.939 9.37838L9.1855 13.3881L9.12838 13.4187L2.53212 15.3394L0.923875 13.4611L1.52937 13.0226L0.542875 12.1234L1.28688 11.5483L0.280125 10.7894L1.04075 10.2236L0 5.22612L1.64825 0.28125Z" fill="#763E1A"/>
<path d="M22.549 12.9989L29.5381 15.0338L31.8087 22.032H25.8182L21.6907 22.084L24.6925 16.233L22.549 12.9989ZM9.45098 12.9989L7.30711 16.233L10.3092 22.084L6.18361 22.032H0.203857L2.46173 15.0339L9.45098 12.9989ZM20.423 4.13916L18.4681 9.41904L18.0532 16.5515L17.8945 18.7872L17.8819 24.4982H14.118L14.1057 18.7979L13.9465 16.5497L13.5315 9.41904L11.5769 4.13916H20.423Z" fill="#F5841F"/>
</svg>
