<svg width="946" height="1303" viewBox="0 0 946 1303" fill="none" xmlns="http://www.w3.org/2000/svg">
<path d="M248.136 48V13.0909H261.909C264.557 13.0909 266.812 13.5966 268.676 14.608C270.54 15.608 271.96 17 272.937 18.7841C273.926 20.5568 274.42 22.6023 274.42 24.9205C274.42 27.2386 273.92 29.2841 272.92 31.0568C271.92 32.8295 270.472 34.2102 268.574 35.1989C266.687 36.1875 264.403 36.6818 261.722 36.6818H252.943V30.767H260.528C261.949 30.767 263.119 30.5227 264.04 30.0341C264.972 29.5341 265.665 28.8466 266.119 27.9716C266.585 27.0852 266.818 26.0682 266.818 24.9205C266.818 23.7614 266.585 22.75 266.119 21.8864C265.665 21.0114 264.972 20.3352 264.04 19.858C263.108 19.3693 261.926 19.125 260.494 19.125H255.517V48H248.136ZM278.598 48V21.8182H285.638V26.3864H285.911C286.388 24.7614 287.189 23.5341 288.314 22.7045C289.439 21.8636 290.734 21.4432 292.2 21.4432C292.564 21.4432 292.956 21.4659 293.376 21.5114C293.797 21.5568 294.166 21.6193 294.484 21.6989V28.142C294.143 28.0398 293.672 27.9489 293.07 27.8693C292.467 27.7898 291.916 27.75 291.416 27.75C290.348 27.75 289.393 27.983 288.553 28.4489C287.723 28.9034 287.064 29.5398 286.575 30.358C286.098 31.1761 285.859 32.1193 285.859 33.1875V48H278.598ZM308.369 48.5114C305.722 48.5114 303.432 47.9489 301.5 46.8239C299.58 45.6875 298.097 44.108 297.051 42.0852C296.006 40.0511 295.483 37.6932 295.483 35.0114C295.483 32.3068 296.006 29.9432 297.051 27.9205C298.097 25.8864 299.58 24.3068 301.5 23.1818C303.432 22.0455 305.722 21.4773 308.369 21.4773C311.017 21.4773 313.301 22.0455 315.222 23.1818C317.154 24.3068 318.642 25.8864 319.688 27.9205C320.733 29.9432 321.256 32.3068 321.256 35.0114C321.256 37.6932 320.733 40.0511 319.688 42.0852C318.642 44.108 317.154 45.6875 315.222 46.8239C313.301 47.9489 311.017 48.5114 308.369 48.5114ZM308.404 42.8864C309.608 42.8864 310.614 42.5455 311.421 41.8636C312.227 41.1705 312.835 40.2273 313.244 39.0341C313.665 37.8409 313.875 36.483 313.875 34.9602C313.875 33.4375 313.665 32.0795 313.244 30.8864C312.835 29.6932 312.227 28.75 311.421 28.0568C310.614 27.3636 309.608 27.017 308.404 27.017C307.188 27.017 306.165 27.3636 305.335 28.0568C304.517 28.75 303.898 29.6932 303.477 30.8864C303.068 32.0795 302.864 33.4375 302.864 34.9602C302.864 36.483 303.068 37.8409 303.477 39.0341C303.898 40.2273 304.517 41.1705 305.335 41.8636C306.165 42.5455 307.188 42.8864 308.404 42.8864ZM325.497 21.8182H332.759V49.2955C332.759 51.3182 332.361 52.9545 331.566 54.2045C330.77 55.4545 329.628 56.3693 328.139 56.9489C326.662 57.5284 324.895 57.8182 322.838 57.8182C322.588 57.8182 322.35 57.8125 322.122 57.8011C321.884 57.8011 321.634 57.7955 321.372 57.7841V52.108C321.566 52.1193 321.736 52.125 321.884 52.125C322.02 52.1364 322.168 52.142 322.327 52.142C323.497 52.142 324.316 51.892 324.782 51.392C325.259 50.9034 325.497 50.1648 325.497 49.1761V21.8182ZM329.111 18.4432C328.043 18.4432 327.122 18.0852 326.35 17.3693C325.577 16.642 325.191 15.7727 325.191 14.7614C325.191 13.7614 325.577 12.9034 326.35 12.1875C327.122 11.4602 328.043 11.0966 329.111 11.0966C330.202 11.0966 331.128 11.4602 331.889 12.1875C332.662 12.9034 333.049 13.7614 333.049 14.7614C333.049 15.7727 332.662 16.642 331.889 17.3693C331.128 18.0852 330.202 18.4432 329.111 18.4432ZM350.027 48.5114C347.334 48.5114 345.016 47.9659 343.073 46.875C341.141 45.7727 339.652 44.2159 338.607 42.2045C337.561 40.1818 337.039 37.7898 337.039 35.0284C337.039 32.3352 337.561 29.9716 338.607 27.9375C339.652 25.9034 341.124 24.3182 343.022 23.1818C344.931 22.0455 347.169 21.4773 349.738 21.4773C351.465 21.4773 353.073 21.7557 354.561 22.3125C356.061 22.858 357.368 23.6818 358.482 24.7841C359.607 25.8864 360.482 27.2727 361.107 28.9432C361.732 30.6023 362.044 32.5455 362.044 34.7727V36.767H339.936V32.267H355.209C355.209 31.2216 354.982 30.2955 354.527 29.4886C354.073 28.6818 353.442 28.0511 352.635 27.5966C351.84 27.1307 350.914 26.8977 349.857 26.8977C348.755 26.8977 347.777 27.1534 346.925 27.6648C346.084 28.1648 345.425 28.8409 344.948 29.6932C344.471 30.5341 344.226 31.4716 344.215 32.5057V36.7841C344.215 38.0795 344.453 39.1989 344.931 40.142C345.419 41.0852 346.107 41.8125 346.993 42.3239C347.88 42.8352 348.931 43.0909 350.147 43.0909C350.953 43.0909 351.692 42.9773 352.363 42.75C353.033 42.5227 353.607 42.1818 354.084 41.7273C354.561 41.2727 354.925 40.7159 355.175 40.0568L361.891 40.5C361.55 42.1136 360.851 43.5227 359.794 44.7273C358.749 45.9205 357.397 46.8523 355.738 47.5227C354.09 48.1818 352.186 48.5114 350.027 48.5114ZM378.133 48.5114C375.451 48.5114 373.144 47.9432 371.212 46.8068C369.292 45.6591 367.814 44.0682 366.78 42.0341C365.758 40 365.246 37.6591 365.246 35.0114C365.246 32.3295 365.763 29.9773 366.797 27.9545C367.843 25.9205 369.326 24.3352 371.246 23.1989C373.167 22.0511 375.451 21.4773 378.098 21.4773C380.383 21.4773 382.383 21.892 384.098 22.7216C385.814 23.5511 387.172 24.7159 388.172 26.2159C389.172 27.7159 389.723 29.4773 389.826 31.5H382.973C382.78 30.1932 382.269 29.142 381.439 28.3466C380.621 27.5398 379.547 27.1364 378.218 27.1364C377.093 27.1364 376.11 27.4432 375.269 28.0568C374.439 28.6591 373.792 29.5398 373.326 30.6989C372.86 31.858 372.627 33.2614 372.627 34.9091C372.627 36.5795 372.854 38 373.309 39.1705C373.775 40.3409 374.428 41.233 375.269 41.8466C376.11 42.4602 377.093 42.767 378.218 42.767C379.047 42.767 379.792 42.5966 380.451 42.2557C381.121 41.9148 381.672 41.4205 382.104 40.7727C382.547 40.1136 382.837 39.3239 382.973 38.4034H389.826C389.712 40.4034 389.167 42.1648 388.189 43.6875C387.223 45.1989 385.888 46.3807 384.184 47.233C382.479 48.0852 380.462 48.5114 378.133 48.5114ZM407.921 21.8182V27.2727H392.154V21.8182H407.921ZM395.734 15.5455H402.995V39.9545C402.995 40.625 403.097 41.1477 403.302 41.5227C403.506 41.8864 403.79 42.142 404.154 42.2898C404.529 42.4375 404.961 42.5114 405.449 42.5114C405.79 42.5114 406.131 42.483 406.472 42.4261C406.813 42.358 407.074 42.3068 407.256 42.2727L408.398 47.6761C408.035 47.7898 407.523 47.9205 406.864 48.0682C406.205 48.2273 405.404 48.3239 404.461 48.358C402.711 48.4261 401.177 48.1932 399.859 47.6591C398.552 47.125 397.535 46.2955 396.807 45.1705C396.08 44.0455 395.722 42.625 395.734 40.9091V15.5455Z" fill="white"/>
<path d="M422.937 48V13.0909H436.71C439.346 13.0909 441.596 13.5625 443.46 14.5057C445.335 15.4375 446.761 16.7614 447.738 18.4773C448.727 20.1818 449.221 22.1875 449.221 24.4943C449.221 26.8125 448.721 28.8068 447.721 30.4773C446.721 32.1364 445.272 33.4091 443.374 34.2955C441.488 35.1818 439.204 35.625 436.522 35.625H427.301V29.6932H435.329C436.738 29.6932 437.908 29.5 438.84 29.1136C439.772 28.7273 440.465 28.1477 440.92 27.375C441.386 26.6023 441.619 25.642 441.619 24.4943C441.619 23.3352 441.386 22.358 440.92 21.5625C440.465 20.767 439.766 20.1648 438.823 19.7557C437.891 19.3352 436.715 19.125 435.295 19.125H430.318V48H422.937ZM441.789 32.1136L450.465 48H442.318L433.829 32.1136H441.789ZM465.228 48.5114C462.58 48.5114 460.291 47.9489 458.359 46.8239C456.438 45.6875 454.955 44.108 453.91 42.0852C452.865 40.0511 452.342 37.6932 452.342 35.0114C452.342 32.3068 452.865 29.9432 453.91 27.9205C454.955 25.8864 456.438 24.3068 458.359 23.1818C460.291 22.0455 462.58 21.4773 465.228 21.4773C467.876 21.4773 470.16 22.0455 472.08 23.1818C474.012 24.3068 475.501 25.8864 476.546 27.9205C477.592 29.9432 478.115 32.3068 478.115 35.0114C478.115 37.6932 477.592 40.0511 476.546 42.0852C475.501 44.108 474.012 45.6875 472.08 46.8239C470.16 47.9489 467.876 48.5114 465.228 48.5114ZM465.262 42.8864C466.467 42.8864 467.473 42.5455 468.279 41.8636C469.086 41.1705 469.694 40.2273 470.103 39.0341C470.524 37.8409 470.734 36.483 470.734 34.9602C470.734 33.4375 470.524 32.0795 470.103 30.8864C469.694 29.6932 469.086 28.75 468.279 28.0568C467.473 27.3636 466.467 27.017 465.262 27.017C464.046 27.017 463.024 27.3636 462.194 28.0568C461.376 28.75 460.757 29.6932 460.336 30.8864C459.927 32.0795 459.723 33.4375 459.723 34.9602C459.723 36.483 459.927 37.8409 460.336 39.0341C460.757 40.2273 461.376 41.1705 462.194 41.8636C463.024 42.5455 464.046 42.8864 465.262 42.8864ZM489.822 48.4943C488.152 48.4943 486.663 48.2045 485.356 47.625C484.049 47.0341 483.015 46.1648 482.254 45.017C481.504 43.858 481.129 42.4148 481.129 40.6875C481.129 39.233 481.396 38.0114 481.93 37.0227C482.464 36.0341 483.191 35.2386 484.112 34.6364C485.032 34.0341 486.078 33.5795 487.248 33.2727C488.43 32.9659 489.669 32.75 490.964 32.625C492.487 32.4659 493.714 32.3182 494.646 32.1818C495.578 32.0341 496.254 31.8182 496.674 31.5341C497.095 31.25 497.305 30.8295 497.305 30.2727V30.1705C497.305 29.0909 496.964 28.2557 496.282 27.6648C495.612 27.0739 494.657 26.7784 493.419 26.7784C492.112 26.7784 491.072 27.0682 490.299 27.6477C489.527 28.2159 489.015 28.9318 488.765 29.7955L482.049 29.25C482.39 27.6591 483.061 26.2841 484.061 25.125C485.061 23.9545 486.35 23.0568 487.93 22.4318C489.521 21.7955 491.362 21.4773 493.453 21.4773C494.907 21.4773 496.299 21.6477 497.629 21.9886C498.97 22.3295 500.157 22.858 501.191 23.5739C502.237 24.2898 503.061 25.2102 503.663 26.3352C504.265 27.4489 504.566 28.7841 504.566 30.3409V48H497.68V44.3693H497.475C497.055 45.1875 496.493 45.9091 495.788 46.5341C495.083 47.1477 494.237 47.6307 493.248 47.983C492.26 48.3239 491.118 48.4943 489.822 48.4943ZM491.902 43.483C492.97 43.483 493.913 43.2727 494.731 42.8523C495.549 42.4205 496.191 41.8409 496.657 41.1136C497.123 40.3864 497.356 39.5625 497.356 38.642V35.8636C497.129 36.0114 496.816 36.1477 496.419 36.2727C496.032 36.3864 495.595 36.4943 495.106 36.5966C494.618 36.6875 494.129 36.7727 493.64 36.8523C493.152 36.9205 492.708 36.983 492.311 37.0398C491.458 37.1648 490.714 37.3636 490.078 37.6364C489.441 37.9091 488.947 38.2784 488.595 38.7443C488.243 39.1989 488.066 39.767 488.066 40.4489C488.066 41.4375 488.424 42.1932 489.14 42.7159C489.868 43.2273 490.788 43.483 491.902 43.483ZM519.368 48.4261C517.379 48.4261 515.578 47.9148 513.964 46.892C512.362 45.858 511.089 44.3409 510.146 42.3409C509.214 40.3295 508.748 37.8636 508.748 34.9432C508.748 31.9432 509.231 29.4489 510.197 27.4602C511.163 25.4602 512.447 23.9659 514.049 22.9773C515.663 21.9773 517.43 21.4773 519.351 21.4773C520.817 21.4773 522.038 21.7273 523.015 22.2273C524.004 22.7159 524.799 23.3295 525.402 24.0682C526.015 24.7955 526.481 25.5114 526.799 26.2159H527.021V13.0909H534.265V48H527.106V43.8068H526.799C526.459 44.5341 525.976 45.2557 525.351 45.9716C524.737 46.6761 523.936 47.2614 522.947 47.7273C521.97 48.1932 520.777 48.4261 519.368 48.4261ZM521.669 42.6477C522.839 42.6477 523.828 42.3295 524.635 41.6932C525.453 41.0455 526.078 40.142 526.51 38.983C526.953 37.8239 527.174 36.4659 527.174 34.9091C527.174 33.3523 526.959 32 526.527 30.8523C526.095 29.7045 525.47 28.8182 524.652 28.1932C523.834 27.5682 522.839 27.2557 521.669 27.2557C520.476 27.2557 519.47 27.5795 518.652 28.2273C517.834 28.875 517.214 29.7727 516.794 30.9205C516.373 32.0682 516.163 33.3977 516.163 34.9091C516.163 36.4318 516.373 37.7784 516.794 38.9489C517.226 40.108 517.845 41.017 518.652 41.6761C519.47 42.3239 520.476 42.6477 521.669 42.6477ZM539.756 48V21.8182H546.676V26.4375H546.983C547.528 24.9034 548.437 23.6932 549.71 22.8068C550.983 21.9205 552.506 21.4773 554.278 21.4773C556.074 21.4773 557.602 21.9261 558.863 22.8239C560.125 23.7102 560.966 24.9148 561.386 26.4375H561.659C562.193 24.9375 563.159 23.7386 564.557 22.8409C565.966 21.9318 567.631 21.4773 569.551 21.4773C571.994 21.4773 573.977 22.2557 575.5 23.8125C577.034 25.358 577.801 27.5511 577.801 30.392V48H570.557V31.8239C570.557 30.3693 570.17 29.2784 569.398 28.5511C568.625 27.8239 567.659 27.4602 566.5 27.4602C565.182 27.4602 564.153 27.8807 563.415 28.7216C562.676 29.5511 562.307 30.6477 562.307 32.0114V48H555.267V31.6705C555.267 30.3864 554.898 29.3636 554.159 28.6023C553.432 27.8409 552.471 27.4602 551.278 27.4602C550.471 27.4602 549.744 27.6648 549.096 28.0739C548.46 28.4716 547.954 29.0341 547.579 29.7614C547.204 30.4773 547.017 31.3182 547.017 32.2841V48H539.756ZM590.523 48.4943C588.852 48.4943 587.364 48.2045 586.057 47.625C584.75 47.0341 583.716 46.1648 582.955 45.017C582.205 43.858 581.83 42.4148 581.83 40.6875C581.83 39.233 582.097 38.0114 582.631 37.0227C583.165 36.0341 583.892 35.2386 584.812 34.6364C585.733 34.0341 586.778 33.5795 587.949 33.2727C589.131 32.9659 590.369 32.75 591.665 32.625C593.187 32.4659 594.415 32.3182 595.347 32.1818C596.278 32.0341 596.955 31.8182 597.375 31.5341C597.795 31.25 598.006 30.8295 598.006 30.2727V30.1705C598.006 29.0909 597.665 28.2557 596.983 27.6648C596.312 27.0739 595.358 26.7784 594.119 26.7784C592.812 26.7784 591.773 27.0682 591 27.6477C590.227 28.2159 589.716 28.9318 589.466 29.7955L582.75 29.25C583.091 27.6591 583.761 26.2841 584.761 25.125C585.761 23.9545 587.051 23.0568 588.631 22.4318C590.222 21.7955 592.062 21.4773 594.153 21.4773C595.608 21.4773 597 21.6477 598.33 21.9886C599.67 22.3295 600.858 22.858 601.892 23.5739C602.937 24.2898 603.761 25.2102 604.364 26.3352C604.966 27.4489 605.267 28.7841 605.267 30.3409V48H598.381V44.3693H598.176C597.756 45.1875 597.193 45.9091 596.489 46.5341C595.784 47.1477 594.937 47.6307 593.949 47.983C592.96 48.3239 591.818 48.4943 590.523 48.4943ZM592.602 43.483C593.67 43.483 594.614 43.2727 595.432 42.8523C596.25 42.4205 596.892 41.8409 597.358 41.1136C597.824 40.3864 598.057 39.5625 598.057 38.642V35.8636C597.83 36.0114 597.517 36.1477 597.119 36.2727C596.733 36.3864 596.295 36.4943 595.807 36.5966C595.318 36.6875 594.83 36.7727 594.341 36.8523C593.852 36.9205 593.409 36.983 593.011 37.0398C592.159 37.1648 591.415 37.3636 590.778 37.6364C590.142 37.9091 589.648 38.2784 589.295 38.7443C588.943 39.1989 588.767 39.767 588.767 40.4489C588.767 41.4375 589.125 42.1932 589.841 42.7159C590.568 43.2273 591.489 43.483 592.602 43.483ZM610.421 57.8182V21.8182H617.58V26.2159H617.904C618.222 25.5114 618.682 24.7955 619.284 24.0682C619.898 23.3295 620.693 22.7159 621.671 22.2273C622.659 21.7273 623.886 21.4773 625.352 21.4773C627.261 21.4773 629.023 21.9773 630.636 22.9773C632.25 23.9659 633.54 25.4602 634.506 27.4602C635.472 29.4489 635.955 31.9432 635.955 34.9432C635.955 37.8636 635.483 40.3295 634.54 42.3409C633.608 44.3409 632.335 45.858 630.722 46.892C629.119 47.9148 627.324 48.4261 625.335 48.4261C623.926 48.4261 622.727 48.1932 621.739 47.7273C620.761 47.2614 619.96 46.6761 619.335 45.9716C618.71 45.2557 618.233 44.5341 617.904 43.8068H617.682V57.8182H610.421ZM617.529 34.9091C617.529 36.4659 617.744 37.8239 618.176 38.983C618.608 40.142 619.233 41.0455 620.051 41.6932C620.869 42.3295 621.864 42.6477 623.034 42.6477C624.216 42.6477 625.216 42.3239 626.034 41.6761C626.852 41.017 627.472 40.108 627.892 38.9489C628.324 37.7784 628.54 36.4318 628.54 34.9091C628.54 33.3977 628.33 32.0682 627.909 30.9205C627.489 29.7727 626.869 28.875 626.051 28.2273C625.233 27.5795 624.227 27.2557 623.034 27.2557C621.852 27.2557 620.852 27.5682 620.034 28.1932C619.227 28.8182 618.608 29.7045 618.176 30.8523C617.744 32 617.529 33.3523 617.529 34.9091Z" fill="#DB00FF"/>
<line x1="443.724" y1="199" x2="443.724" y2="1191" stroke="#DB00FF" stroke-width="1.44713"/>
<g filter="url(#filter0_d_1_6901)">
<circle cx="442.154" cy="205.154" r="23.1541" fill="#DB00FF"/>
</g>
<path d="M440.991 215V199.775H440.914L436.17 203.108V200.017L440.965 196.647H444.208V215H440.991Z" fill="white"/>
<line x1="470" y1="206.5" x2="566" y2="206.5" stroke="#DB00FF"/>
<path d="M605.24 228.908H610.719C612.125 228.908 613.268 229.344 614.146 230.217C615.025 231.083 615.465 232.219 615.465 233.625C615.465 235.025 615.012 236.161 614.107 237.033C613.209 237.906 612.044 238.342 610.611 238.342H607.76V243H605.24V228.908ZM607.76 230.969V236.311H610.045C610.95 236.311 611.653 236.076 612.154 235.607C612.656 235.139 612.906 234.478 612.906 233.625C612.906 232.779 612.656 232.124 612.154 231.662C611.66 231.2 610.96 230.969 610.055 230.969H607.76ZM617.135 243V228.908H619.537V234.426H619.586C619.866 233.794 620.286 233.309 620.846 232.971C621.406 232.626 622.076 232.453 622.857 232.453C623.99 232.453 624.876 232.801 625.514 233.498C626.158 234.188 626.48 235.132 626.48 236.33V243H624.049V236.828C624.049 236.092 623.867 235.523 623.502 235.119C623.144 234.715 622.617 234.514 621.92 234.514C621.191 234.514 620.615 234.745 620.191 235.207C619.775 235.669 619.566 236.285 619.566 237.053V243H617.135ZM632.213 241.33C632.91 241.33 633.495 241.125 633.971 240.715C634.452 240.298 634.693 239.781 634.693 239.162V238.371L632.301 238.518C631.715 238.557 631.259 238.703 630.934 238.957C630.615 239.204 630.455 239.533 630.455 239.943C630.455 240.367 630.615 240.705 630.934 240.959C631.259 241.206 631.686 241.33 632.213 241.33ZM631.48 243.166C630.471 243.166 629.641 242.876 628.99 242.297C628.346 241.717 628.023 240.965 628.023 240.041C628.023 239.123 628.362 238.397 629.039 237.863C629.723 237.329 630.696 237.023 631.959 236.945L634.693 236.789V236.047C634.693 235.507 634.521 235.087 634.176 234.787C633.837 234.488 633.365 234.338 632.76 234.338C632.193 234.338 631.731 234.465 631.373 234.719C631.015 234.973 630.797 235.318 630.719 235.754H628.463C628.515 234.771 628.935 233.973 629.723 233.361C630.517 232.743 631.562 232.434 632.857 232.434C634.14 232.434 635.165 232.746 635.934 233.371C636.708 233.996 637.096 234.829 637.096 235.871V243H634.752V241.35H634.703C634.41 241.903 633.967 242.346 633.375 242.678C632.783 243.003 632.151 243.166 631.48 243.166ZM638.873 235.617C638.873 234.667 639.257 233.898 640.025 233.312C640.794 232.727 641.806 232.434 643.062 232.434C644.273 232.434 645.257 232.733 646.012 233.332C646.773 233.924 647.171 234.699 647.203 235.656H644.938C644.898 235.207 644.71 234.855 644.371 234.602C644.033 234.348 643.58 234.221 643.014 234.221C642.48 234.221 642.05 234.338 641.725 234.572C641.399 234.8 641.236 235.103 641.236 235.48C641.236 236.053 641.731 236.46 642.721 236.701L644.566 237.111C645.602 237.352 646.34 237.691 646.783 238.127C647.226 238.563 647.447 239.165 647.447 239.934C647.447 240.91 647.037 241.701 646.217 242.307C645.396 242.906 644.332 243.205 643.023 243.205C641.734 243.205 640.696 242.912 639.908 242.326C639.127 241.734 638.694 240.943 638.609 239.953H641.002C641.074 240.428 641.288 240.793 641.646 241.047C642.011 241.301 642.499 241.428 643.111 241.428C643.704 241.428 644.169 241.317 644.508 241.096C644.853 240.868 645.025 240.562 645.025 240.178C645.025 239.878 644.918 239.641 644.703 239.465C644.495 239.283 644.14 239.126 643.639 238.996L641.754 238.557C639.833 238.107 638.873 237.128 638.873 235.617ZM653.463 234.318C652.786 234.318 652.219 234.553 651.764 235.021C651.314 235.484 651.064 236.079 651.012 236.809H655.846C655.82 236.073 655.589 235.474 655.152 235.012C654.716 234.549 654.153 234.318 653.463 234.318ZM655.855 239.904H658.131C657.975 240.887 657.477 241.685 656.637 242.297C655.797 242.902 654.768 243.205 653.551 243.205C652.001 243.205 650.784 242.73 649.898 241.779C649.013 240.822 648.57 239.517 648.57 237.863C648.57 236.223 649.01 234.908 649.889 233.918C650.774 232.928 651.962 232.434 653.453 232.434C654.918 232.434 656.08 232.906 656.939 233.85C657.799 234.787 658.229 236.044 658.229 237.619V238.41H650.992V238.557C650.992 239.39 651.227 240.061 651.695 240.568C652.171 241.076 652.805 241.33 653.6 241.33C654.16 241.33 654.641 241.203 655.045 240.949C655.455 240.689 655.725 240.34 655.855 239.904ZM667.408 243V231.311H667.35L663.707 233.869V231.496L667.389 228.908H669.879V243H667.408Z" fill="white"/>
<path d="M613 280.008C614.305 280.008 615.375 278.938 615.375 277.633C615.375 276.328 614.305 275.258 613 275.258C611.695 275.258 610.625 276.328 610.625 277.633C610.625 278.938 611.695 280.008 613 280.008ZM629.789 282.188C632.141 282.188 633.805 280.602 633.805 278.336C633.805 276.148 632.242 274.562 630.078 274.562C629 274.562 628.062 274.969 627.555 275.648H627.523L627.867 271.977H633.164V270.727H626.711L626.094 277.039H627.414C627.875 276.25 628.773 275.773 629.828 275.773C631.328 275.773 632.398 276.859 632.398 278.375C632.398 279.891 631.336 280.953 629.805 280.953C628.453 280.953 627.43 280.125 627.305 278.922H625.922C626.039 280.844 627.633 282.188 629.789 282.188ZM639.219 282.188C641.844 282.188 643.359 279.914 643.359 276.352C643.359 272.812 641.836 270.539 639.219 270.539C636.602 270.539 635.062 272.828 635.062 276.359C635.062 279.922 636.586 282.188 639.219 282.188ZM639.219 280.961C637.453 280.961 636.477 279.164 636.477 276.352C636.477 273.602 637.477 271.773 639.219 271.773C640.961 271.773 641.945 273.586 641.945 276.359C641.945 279.172 640.977 280.961 639.219 280.961ZM654.664 277.336V276.266H650.078V277.5H653.258V277.703C653.258 279.594 651.883 280.891 649.883 280.891C647.586 280.891 646.164 279.133 646.164 276.297C646.164 273.508 647.562 271.836 649.883 271.836C651.469 271.836 652.648 272.703 653.117 274.227H654.594C654.172 271.984 652.32 270.539 649.883 270.539C646.727 270.539 644.719 272.781 644.719 276.305C644.719 279.891 646.734 282.188 649.883 282.188C652.891 282.188 654.664 280.383 654.664 277.336ZM665.469 282V270.727H664.062V275.602H657.875V270.727H656.469V282H657.875V276.867H664.062V282H665.469ZM674.094 282.141C676.336 282.141 677.852 280.523 677.852 277.938C677.852 275.344 676.336 273.734 674.094 273.734C671.844 273.734 670.328 275.344 670.328 277.938C670.328 280.523 671.844 282.141 674.094 282.141ZM674.094 280.945C672.656 280.945 671.711 279.852 671.711 277.938C671.711 276.023 672.656 274.93 674.094 274.93C675.531 274.93 676.469 276.023 676.469 277.938C676.469 279.852 675.531 280.945 674.094 280.945ZM679.664 282H681.023V274.992H682.68V273.875H681.016V272.977C681.016 272.172 681.367 271.781 682.102 271.781C682.328 271.781 682.555 271.805 682.719 271.828V270.727C682.523 270.695 682.195 270.664 681.891 270.664C680.391 270.664 679.664 271.406 679.664 272.969V273.875H678.531V274.992H679.664V282ZM696.578 282V270.727H695.172V275.602H688.984V270.727H687.578V282H688.984V276.867H695.172V282H696.578ZM701 280.984C700.023 280.984 699.375 280.477 699.375 279.703C699.375 278.938 700 278.453 701.094 278.383L703.266 278.25V278.914C703.266 280.086 702.281 280.984 701 280.984ZM700.695 282.141C701.789 282.141 702.82 281.531 703.305 280.602H703.336V282H704.625V276.383C704.625 274.766 703.422 273.734 701.516 273.734C699.594 273.734 698.391 274.812 698.297 276.219H699.609C699.781 275.422 700.438 274.93 701.484 274.93C702.609 274.93 703.266 275.523 703.266 276.516V277.195L700.938 277.328C699.062 277.438 697.992 278.312 697.992 279.703C697.992 281.164 699.078 282.141 700.695 282.141ZM706.211 276.117C706.211 277.227 706.914 277.961 708.344 278.328L709.773 278.695C710.688 278.938 711.023 279.25 711.023 279.828C711.023 280.562 710.344 281.031 709.242 281.031C708.141 281.031 707.5 280.578 707.352 279.734H705.992C706.133 281.172 707.375 282.141 709.156 282.141C711.055 282.141 712.391 281.141 712.391 279.727C712.391 278.531 711.797 277.938 710.156 277.523L708.898 277.219C707.977 276.984 707.547 276.609 707.547 276.047C707.547 275.336 708.203 274.844 709.195 274.844C710.195 274.844 710.828 275.328 710.922 276.109H712.219C712.156 274.734 710.922 273.734 709.242 273.734C707.453 273.734 706.211 274.727 706.211 276.117ZM713.875 282H715.234V277.266C715.234 275.859 716.07 274.938 717.422 274.938C718.695 274.938 719.344 275.711 719.344 277V282H720.703V276.75C720.703 274.938 719.625 273.734 717.844 273.734C716.609 273.734 715.719 274.266 715.266 275.172H715.234V270.727H713.875V282ZM729.656 273.734C728.477 273.734 727.531 274.336 727.031 275.25H727V273.875H725.711V284.711H727.07V280.68H727.102C727.586 281.57 728.523 282.141 729.688 282.141C731.734 282.141 733.133 280.484 733.133 277.938C733.133 275.391 731.727 273.734 729.656 273.734ZM729.391 280.945C728 280.945 727.062 279.75 727.062 277.938C727.062 276.133 728 274.93 729.391 274.93C730.836 274.93 731.742 276.102 731.742 277.938C731.742 279.781 730.836 280.945 729.391 280.945ZM737.875 282.141C740.117 282.141 741.633 280.523 741.633 277.938C741.633 275.344 740.117 273.734 737.875 273.734C735.625 273.734 734.109 275.344 734.109 277.938C734.109 280.523 735.625 282.141 737.875 282.141ZM737.875 280.945C736.438 280.945 735.492 279.852 735.492 277.938C735.492 276.023 736.438 274.93 737.875 274.93C739.312 274.93 740.25 276.023 740.25 277.938C740.25 279.852 739.312 280.945 737.875 280.945ZM753.344 273.875H752L750.375 280.484H750.344L748.5 273.875H747.188L745.352 280.484H745.32L743.695 273.875H742.344L744.617 282H746L747.828 275.711H747.859L749.695 282H751.078L753.344 273.875ZM757.719 274.914C759 274.914 759.852 275.883 759.883 277.242H755.469C755.555 275.891 756.445 274.914 757.719 274.914ZM759.852 279.672C759.625 280.438 758.867 280.961 757.836 280.961C756.375 280.961 755.461 279.938 755.461 278.383V278.305H761.289V277.789C761.289 275.328 759.938 273.734 757.742 273.734C755.5 273.734 754.062 275.445 754.062 277.969C754.062 280.523 755.477 282.141 757.805 282.141C759.578 282.141 760.953 281.094 761.188 279.672H759.852ZM762.664 282H764.023V276.938C764.023 275.789 764.711 275.031 765.766 275.031C766.094 275.031 766.383 275.07 766.492 275.109V273.789C766.383 273.773 766.18 273.734 765.945 273.734C764.992 273.734 764.242 274.305 763.977 275.203H763.945V273.875H762.664V282ZM773.562 280.984C772.586 280.984 771.938 280.477 771.938 279.703C771.938 278.938 772.562 278.453 773.656 278.383L775.828 278.25V278.914C775.828 280.086 774.844 280.984 773.562 280.984ZM773.258 282.141C774.352 282.141 775.383 281.531 775.867 280.602H775.898V282H777.188V276.383C777.188 274.766 775.984 273.734 774.078 273.734C772.156 273.734 770.953 274.812 770.859 276.219H772.172C772.344 275.422 773 274.93 774.047 274.93C775.172 274.93 775.828 275.523 775.828 276.516V277.195L773.5 277.328C771.625 277.438 770.555 278.312 770.555 279.703C770.555 281.164 771.641 282.141 773.258 282.141ZM785.664 276.539C785.492 275.078 784.281 273.734 782.25 273.734C780.008 273.734 778.516 275.375 778.516 277.938C778.516 280.555 780.016 282.141 782.266 282.141C784.109 282.141 785.469 281 785.68 279.383H784.344C784.109 280.359 783.383 280.945 782.273 280.945C780.867 280.945 779.898 279.828 779.898 277.938C779.898 276.094 780.852 274.93 782.258 274.93C783.453 274.93 784.141 275.656 784.336 276.539H785.664ZM787.367 271.914V273.875H786.156V274.992H787.367V279.891C787.367 281.453 787.945 282.062 789.438 282.062C789.758 282.062 790.133 282.039 790.297 282V280.859C790.203 280.875 789.891 280.898 789.734 280.898C789.039 280.898 788.727 280.562 788.727 279.82V274.992H790.305V273.875H788.727V271.914H787.367ZM791.828 282H793.188V273.875H791.828V282ZM792.508 272.508C792.977 272.508 793.359 272.125 793.359 271.664C793.359 271.195 792.977 270.82 792.508 270.82C792.047 270.82 791.664 271.195 791.664 271.664C791.664 272.125 792.047 272.508 792.508 272.508ZM801.688 273.875H800.273L798.023 280.555H797.992L795.75 273.875H794.32L797.312 282H798.703L801.688 273.875ZM805.281 280.984C804.305 280.984 803.656 280.477 803.656 279.703C803.656 278.938 804.281 278.453 805.375 278.383L807.547 278.25V278.914C807.547 280.086 806.562 280.984 805.281 280.984ZM804.977 282.141C806.07 282.141 807.102 281.531 807.586 280.602H807.617V282H808.906V276.383C808.906 274.766 807.703 273.734 805.797 273.734C803.875 273.734 802.672 274.812 802.578 276.219H803.891C804.062 275.422 804.719 274.93 805.766 274.93C806.891 274.93 807.547 275.523 807.547 276.516V277.195L805.219 277.328C803.344 277.438 802.273 278.312 802.273 279.703C802.273 281.164 803.359 282.141 804.977 282.141ZM811.07 271.914V273.875H809.859V274.992H811.07V279.891C811.07 281.453 811.648 282.062 813.141 282.062C813.461 282.062 813.836 282.039 814 282V280.859C813.906 280.875 813.594 280.898 813.438 280.898C812.742 280.898 812.43 280.562 812.43 279.82V274.992H814.008V273.875H812.43V271.914H811.07ZM815.531 282H816.891V273.875H815.531V282ZM816.211 272.508C816.68 272.508 817.062 272.125 817.062 271.664C817.062 271.195 816.68 270.82 816.211 270.82C815.75 270.82 815.367 271.195 815.367 271.664C815.367 272.125 815.75 272.508 816.211 272.508ZM822.094 282.141C824.336 282.141 825.852 280.523 825.852 277.938C825.852 275.344 824.336 273.734 822.094 273.734C819.844 273.734 818.328 275.344 818.328 277.938C818.328 280.523 819.844 282.141 822.094 282.141ZM822.094 280.945C820.656 280.945 819.711 279.852 819.711 277.938C819.711 276.023 820.656 274.93 822.094 274.93C823.531 274.93 824.469 276.023 824.469 277.938C824.469 279.852 823.531 280.945 822.094 280.945ZM827.227 282H828.586V277.219C828.586 275.844 829.422 274.938 830.703 274.938C831.953 274.938 832.57 275.656 832.57 276.969V282H833.93V276.727C833.93 274.883 832.898 273.734 831.117 273.734C829.859 273.734 828.992 274.297 828.539 275.172H828.508V273.875H827.227V282Z" fill="white" fill-opacity="0.8"/>
<rect x="565.5" y="206.5" width="316" height="104" rx="9.5" stroke="white" stroke-linejoin="round" stroke-dasharray="7 7"/>
<circle cx="565.5" cy="207.5" r="8.5" fill="#DB00FF"/>
<g filter="url(#filter1_d_1_6901)">
<circle cx="442.154" cy="701.154" r="23.1541" fill="#DB00FF"/>
</g>
<path d="M440.571 701.61V699.143H442.784C443.725 699.143 444.488 698.884 445.073 698.367C445.658 697.841 445.951 697.167 445.951 696.345C445.951 695.531 445.671 694.882 445.112 694.399C444.56 693.915 443.78 693.674 442.771 693.674C441.83 693.674 441.063 693.932 440.469 694.45C439.876 694.958 439.545 695.641 439.477 696.497H436.425C436.518 694.844 437.149 693.525 438.32 692.542C439.498 691.558 441.033 691.066 442.924 691.066C444.738 691.066 446.222 691.516 447.376 692.415C448.529 693.313 449.105 694.475 449.105 695.9C449.105 697.027 448.758 697.981 448.062 698.761C447.376 699.533 446.46 700.016 445.315 700.211V700.288C446.697 700.389 447.795 700.839 448.609 701.636C449.432 702.424 449.843 703.455 449.843 704.726C449.843 706.338 449.186 707.648 447.872 708.657C446.566 709.657 444.904 710.157 442.886 710.157C440.885 710.157 439.269 709.657 438.04 708.657C436.81 707.648 436.153 706.321 436.068 704.676H439.197C439.274 705.523 439.642 706.202 440.304 706.711C440.965 707.219 441.834 707.474 442.911 707.474C443.971 707.474 444.836 707.207 445.506 706.672C446.176 706.138 446.511 705.447 446.511 704.599C446.511 703.675 446.18 702.946 445.519 702.412C444.866 701.877 443.971 701.61 442.835 701.61H440.571Z" fill="white"/>
<line x1="470" y1="702.5" x2="566" y2="702.5" stroke="#DB00FF"/>
<path d="M607.24 724.908H612.719C614.125 724.908 615.268 725.344 616.146 726.217C617.025 727.083 617.465 728.219 617.465 729.625C617.465 731.025 617.012 732.161 616.107 733.033C615.209 733.906 614.044 734.342 612.611 734.342H609.76V739H607.24V724.908ZM609.76 726.969V732.311H612.045C612.95 732.311 613.653 732.076 614.154 731.607C614.656 731.139 614.906 730.478 614.906 729.625C614.906 728.779 614.656 728.124 614.154 727.662C613.66 727.2 612.96 726.969 612.055 726.969H609.76ZM619.135 739V724.908H621.537V730.426H621.586C621.866 729.794 622.286 729.309 622.846 728.971C623.406 728.626 624.076 728.453 624.857 728.453C625.99 728.453 626.876 728.801 627.514 729.498C628.158 730.188 628.48 731.132 628.48 732.33V739H626.049V732.828C626.049 732.092 625.867 731.523 625.502 731.119C625.144 730.715 624.617 730.514 623.92 730.514C623.191 730.514 622.615 730.745 622.191 731.207C621.775 731.669 621.566 732.285 621.566 733.053V739H619.135ZM634.213 737.33C634.91 737.33 635.495 737.125 635.971 736.715C636.452 736.298 636.693 735.781 636.693 735.162V734.371L634.301 734.518C633.715 734.557 633.259 734.703 632.934 734.957C632.615 735.204 632.455 735.533 632.455 735.943C632.455 736.367 632.615 736.705 632.934 736.959C633.259 737.206 633.686 737.33 634.213 737.33ZM633.48 739.166C632.471 739.166 631.641 738.876 630.99 738.297C630.346 737.717 630.023 736.965 630.023 736.041C630.023 735.123 630.362 734.397 631.039 733.863C631.723 733.329 632.696 733.023 633.959 732.945L636.693 732.789V732.047C636.693 731.507 636.521 731.087 636.176 730.787C635.837 730.488 635.365 730.338 634.76 730.338C634.193 730.338 633.731 730.465 633.373 730.719C633.015 730.973 632.797 731.318 632.719 731.754H630.463C630.515 730.771 630.935 729.973 631.723 729.361C632.517 728.743 633.562 728.434 634.857 728.434C636.14 728.434 637.165 728.746 637.934 729.371C638.708 729.996 639.096 730.829 639.096 731.871V739H636.752V737.35H636.703C636.41 737.903 635.967 738.346 635.375 738.678C634.783 739.003 634.151 739.166 633.48 739.166ZM640.873 731.617C640.873 730.667 641.257 729.898 642.025 729.312C642.794 728.727 643.806 728.434 645.062 728.434C646.273 728.434 647.257 728.733 648.012 729.332C648.773 729.924 649.171 730.699 649.203 731.656H646.938C646.898 731.207 646.71 730.855 646.371 730.602C646.033 730.348 645.58 730.221 645.014 730.221C644.48 730.221 644.05 730.338 643.725 730.572C643.399 730.8 643.236 731.103 643.236 731.48C643.236 732.053 643.731 732.46 644.721 732.701L646.566 733.111C647.602 733.352 648.34 733.691 648.783 734.127C649.226 734.563 649.447 735.165 649.447 735.934C649.447 736.91 649.037 737.701 648.217 738.307C647.396 738.906 646.332 739.205 645.023 739.205C643.734 739.205 642.696 738.912 641.908 738.326C641.127 737.734 640.694 736.943 640.609 735.953H643.002C643.074 736.428 643.288 736.793 643.646 737.047C644.011 737.301 644.499 737.428 645.111 737.428C645.704 737.428 646.169 737.317 646.508 737.096C646.853 736.868 647.025 736.562 647.025 736.178C647.025 735.878 646.918 735.641 646.703 735.465C646.495 735.283 646.14 735.126 645.639 734.996L643.754 734.557C641.833 734.107 640.873 733.128 640.873 731.617ZM655.463 730.318C654.786 730.318 654.219 730.553 653.764 731.021C653.314 731.484 653.064 732.079 653.012 732.809H657.846C657.82 732.073 657.589 731.474 657.152 731.012C656.716 730.549 656.153 730.318 655.463 730.318ZM657.855 735.904H660.131C659.975 736.887 659.477 737.685 658.637 738.297C657.797 738.902 656.768 739.205 655.551 739.205C654.001 739.205 652.784 738.73 651.898 737.779C651.013 736.822 650.57 735.517 650.57 733.863C650.57 732.223 651.01 730.908 651.889 729.918C652.774 728.928 653.962 728.434 655.453 728.434C656.918 728.434 658.08 728.906 658.939 729.85C659.799 730.787 660.229 732.044 660.229 733.619V734.41H652.992V734.557C652.992 735.39 653.227 736.061 653.695 736.568C654.171 737.076 654.805 737.33 655.6 737.33C656.16 737.33 656.641 737.203 657.045 736.949C657.455 736.689 657.725 736.34 657.855 735.904ZM669.086 732.721V730.826H670.785C671.508 730.826 672.094 730.628 672.543 730.23C672.992 729.827 673.217 729.309 673.217 728.678C673.217 728.053 673.002 727.555 672.572 727.184C672.149 726.812 671.55 726.627 670.775 726.627C670.053 726.627 669.464 726.826 669.008 727.223C668.552 727.613 668.298 728.137 668.246 728.795H665.902C665.974 727.525 666.459 726.513 667.357 725.758C668.262 725.003 669.441 724.625 670.893 724.625C672.286 724.625 673.425 724.97 674.311 725.66C675.196 726.35 675.639 727.242 675.639 728.336C675.639 729.202 675.372 729.934 674.838 730.533C674.311 731.126 673.607 731.497 672.729 731.646V731.705C673.79 731.783 674.633 732.128 675.258 732.74C675.889 733.346 676.205 734.137 676.205 735.113C676.205 736.35 675.701 737.356 674.691 738.131C673.689 738.899 672.413 739.283 670.863 739.283C669.327 739.283 668.087 738.899 667.143 738.131C666.199 737.356 665.694 736.337 665.629 735.074H668.031C668.09 735.725 668.373 736.246 668.881 736.637C669.389 737.027 670.056 737.223 670.883 737.223C671.697 737.223 672.361 737.018 672.875 736.607C673.389 736.197 673.646 735.667 673.646 735.016C673.646 734.306 673.393 733.746 672.885 733.336C672.383 732.926 671.697 732.721 670.824 732.721H669.086Z" fill="white"/>
<path d="M615 776.008C616.305 776.008 617.375 774.938 617.375 773.633C617.375 772.328 616.305 771.258 615 771.258C613.695 771.258 612.625 772.328 612.625 773.633C612.625 774.938 613.695 776.008 615 776.008ZM630.211 772.797H631.625C633.234 772.797 634.234 773.617 634.234 774.945C634.234 776.125 633.164 776.969 631.672 776.969C630.156 776.969 629.195 776.172 629.07 775.016H627.719C627.82 776.883 629.328 778.188 631.688 778.188C633.898 778.188 635.664 776.836 635.664 774.898C635.664 773.312 634.57 772.258 632.867 772.156V772.125C634.273 771.875 635.18 770.859 635.18 769.445C635.18 767.75 633.656 766.539 631.641 766.539C629.523 766.539 628.102 767.766 627.945 769.68H629.297C629.422 768.5 630.281 767.758 631.578 767.758C633.008 767.758 633.766 768.516 633.766 769.633C633.766 770.773 632.859 771.609 631.562 771.609H630.211V772.797ZM641.328 778.188C643.953 778.188 645.469 775.914 645.469 772.352C645.469 768.812 643.945 766.539 641.328 766.539C638.711 766.539 637.172 768.828 637.172 772.359C637.172 775.922 638.695 778.188 641.328 778.188ZM641.328 776.961C639.562 776.961 638.586 775.164 638.586 772.352C638.586 769.602 639.586 767.773 641.328 767.773C643.07 767.773 644.055 769.586 644.055 772.359C644.055 775.172 643.086 776.961 641.328 776.961ZM651.031 778.188C653.656 778.188 655.172 775.914 655.172 772.352C655.172 768.812 653.648 766.539 651.031 766.539C648.414 766.539 646.875 768.828 646.875 772.359C646.875 775.922 648.398 778.188 651.031 778.188ZM651.031 776.961C649.266 776.961 648.289 775.164 648.289 772.352C648.289 769.602 649.289 767.773 651.031 767.773C652.773 767.773 653.758 769.586 653.758 772.359C653.758 775.172 652.789 776.961 651.031 776.961ZM666.477 773.336V772.266H661.891V773.5H665.07V773.703C665.07 775.594 663.695 776.891 661.695 776.891C659.398 776.891 657.977 775.133 657.977 772.297C657.977 769.508 659.375 767.836 661.695 767.836C663.281 767.836 664.461 768.703 664.93 770.227H666.406C665.984 767.984 664.133 766.539 661.695 766.539C658.539 766.539 656.531 768.781 656.531 772.305C656.531 775.891 658.547 778.188 661.695 778.188C664.703 778.188 666.477 776.383 666.477 773.336ZM677.281 778V766.727H675.875V771.602H669.688V766.727H668.281V778H669.688V772.867H675.875V778H677.281ZM685.906 778.141C688.148 778.141 689.664 776.523 689.664 773.938C689.664 771.344 688.148 769.734 685.906 769.734C683.656 769.734 682.141 771.344 682.141 773.938C682.141 776.523 683.656 778.141 685.906 778.141ZM685.906 776.945C684.469 776.945 683.523 775.852 683.523 773.938C683.523 772.023 684.469 770.93 685.906 770.93C687.344 770.93 688.281 772.023 688.281 773.938C688.281 775.852 687.344 776.945 685.906 776.945ZM691.477 778H692.836V770.992H694.492V769.875H692.828V768.977C692.828 768.172 693.18 767.781 693.914 767.781C694.141 767.781 694.367 767.805 694.531 767.828V766.727C694.336 766.695 694.008 766.664 693.703 766.664C692.203 766.664 691.477 767.406 691.477 768.969V769.875H690.344V770.992H691.477V778ZM708.391 778V766.727H706.984V771.602H700.797V766.727H699.391V778H700.797V772.867H706.984V778H708.391ZM712.812 776.984C711.836 776.984 711.188 776.477 711.188 775.703C711.188 774.938 711.812 774.453 712.906 774.383L715.078 774.25V774.914C715.078 776.086 714.094 776.984 712.812 776.984ZM712.508 778.141C713.602 778.141 714.633 777.531 715.117 776.602H715.148V778H716.438V772.383C716.438 770.766 715.234 769.734 713.328 769.734C711.406 769.734 710.203 770.812 710.109 772.219H711.422C711.594 771.422 712.25 770.93 713.297 770.93C714.422 770.93 715.078 771.523 715.078 772.516V773.195L712.75 773.328C710.875 773.438 709.805 774.312 709.805 775.703C709.805 777.164 710.891 778.141 712.508 778.141ZM718.023 772.117C718.023 773.227 718.727 773.961 720.156 774.328L721.586 774.695C722.5 774.938 722.836 775.25 722.836 775.828C722.836 776.562 722.156 777.031 721.055 777.031C719.953 777.031 719.312 776.578 719.164 775.734H717.805C717.945 777.172 719.188 778.141 720.969 778.141C722.867 778.141 724.203 777.141 724.203 775.727C724.203 774.531 723.609 773.938 721.969 773.523L720.711 773.219C719.789 772.984 719.359 772.609 719.359 772.047C719.359 771.336 720.016 770.844 721.008 770.844C722.008 770.844 722.641 771.328 722.734 772.109H724.031C723.969 770.734 722.734 769.734 721.055 769.734C719.266 769.734 718.023 770.727 718.023 772.117ZM725.688 778H727.047V773.266C727.047 771.859 727.883 770.938 729.234 770.938C730.508 770.938 731.156 771.711 731.156 773V778H732.516V772.75C732.516 770.938 731.438 769.734 729.656 769.734C728.422 769.734 727.531 770.266 727.078 771.172H727.047V766.727H725.688V778ZM737.734 766.727V778H739.141V773.977H741.742C743.859 773.977 745.367 772.484 745.367 770.344C745.367 768.211 743.875 766.727 741.758 766.727H737.734ZM739.141 767.977H741.391C743.008 767.977 743.922 768.852 743.922 770.344C743.922 771.844 743 772.727 741.391 772.727H739.141V767.977ZM749.75 778.141C751.992 778.141 753.508 776.523 753.508 773.938C753.508 771.344 751.992 769.734 749.75 769.734C747.5 769.734 745.984 771.344 745.984 773.938C745.984 776.523 747.5 778.141 749.75 778.141ZM749.75 776.945C748.312 776.945 747.367 775.852 747.367 773.938C747.367 772.023 748.312 770.93 749.75 770.93C751.188 770.93 752.125 772.023 752.125 773.938C752.125 775.852 751.188 776.945 749.75 776.945ZM765.219 769.875H763.875L762.25 776.484H762.219L760.375 769.875H759.062L757.227 776.484H757.195L755.57 769.875H754.219L756.492 778H757.875L759.703 771.711H759.734L761.57 778H762.953L765.219 769.875ZM769.594 770.914C770.875 770.914 771.727 771.883 771.758 773.242H767.344C767.43 771.891 768.32 770.914 769.594 770.914ZM771.727 775.672C771.5 776.438 770.742 776.961 769.711 776.961C768.25 776.961 767.336 775.938 767.336 774.383V774.305H773.164V773.789C773.164 771.328 771.812 769.734 769.617 769.734C767.375 769.734 765.938 771.445 765.938 773.969C765.938 776.523 767.352 778.141 769.68 778.141C771.453 778.141 772.828 777.094 773.062 775.672H771.727ZM774.539 778H775.898V772.938C775.898 771.789 776.586 771.031 777.641 771.031C777.969 771.031 778.258 771.07 778.367 771.109V769.789C778.258 769.773 778.055 769.734 777.82 769.734C776.867 769.734 776.117 770.305 775.852 771.203H775.82V769.875H774.539V778ZM790.297 778H791.773L787.617 766.727H786.227L782.07 778H783.547L784.68 774.773H789.164L790.297 778ZM786.898 768.438H786.945L788.75 773.578H785.094L786.898 768.438ZM799.445 772.539C799.273 771.078 798.062 769.734 796.031 769.734C793.789 769.734 792.297 771.375 792.297 773.938C792.297 776.555 793.797 778.141 796.047 778.141C797.891 778.141 799.25 777 799.461 775.383H798.125C797.891 776.359 797.164 776.945 796.055 776.945C794.648 776.945 793.68 775.828 793.68 773.938C793.68 772.094 794.633 770.93 796.039 770.93C797.234 770.93 797.922 771.656 798.117 772.539H799.445ZM801.148 767.914V769.875H799.938V770.992H801.148V775.891C801.148 777.453 801.727 778.062 803.219 778.062C803.539 778.062 803.914 778.039 804.078 778V776.859C803.984 776.875 803.672 776.898 803.516 776.898C802.82 776.898 802.508 776.562 802.508 775.82V770.992H804.086V769.875H802.508V767.914H801.148ZM805.609 778H806.969V769.875H805.609V778ZM806.289 768.508C806.758 768.508 807.141 768.125 807.141 767.664C807.141 767.195 806.758 766.82 806.289 766.82C805.828 766.82 805.445 767.195 805.445 767.664C805.445 768.125 805.828 768.508 806.289 768.508ZM815.469 769.875H814.055L811.805 776.555H811.773L809.531 769.875H808.102L811.094 778H812.484L815.469 769.875ZM819.062 776.984C818.086 776.984 817.438 776.477 817.438 775.703C817.438 774.938 818.062 774.453 819.156 774.383L821.328 774.25V774.914C821.328 776.086 820.344 776.984 819.062 776.984ZM818.758 778.141C819.852 778.141 820.883 777.531 821.367 776.602H821.398V778H822.688V772.383C822.688 770.766 821.484 769.734 819.578 769.734C817.656 769.734 816.453 770.812 816.359 772.219H817.672C817.844 771.422 818.5 770.93 819.547 770.93C820.672 770.93 821.328 771.523 821.328 772.516V773.195L819 773.328C817.125 773.438 816.055 774.312 816.055 775.703C816.055 777.164 817.141 778.141 818.758 778.141ZM824.852 767.914V769.875H823.641V770.992H824.852V775.891C824.852 777.453 825.43 778.062 826.922 778.062C827.242 778.062 827.617 778.039 827.781 778V776.859C827.688 776.875 827.375 776.898 827.219 776.898C826.523 776.898 826.211 776.562 826.211 775.82V770.992H827.789V769.875H826.211V767.914H824.852ZM829.312 778H830.672V769.875H829.312V778ZM829.992 768.508C830.461 768.508 830.844 768.125 830.844 767.664C830.844 767.195 830.461 766.82 829.992 766.82C829.531 766.82 829.148 767.195 829.148 767.664C829.148 768.125 829.531 768.508 829.992 768.508ZM835.875 778.141C838.117 778.141 839.633 776.523 839.633 773.938C839.633 771.344 838.117 769.734 835.875 769.734C833.625 769.734 832.109 771.344 832.109 773.938C832.109 776.523 833.625 778.141 835.875 778.141ZM835.875 776.945C834.438 776.945 833.492 775.852 833.492 773.938C833.492 772.023 834.438 770.93 835.875 770.93C837.312 770.93 838.25 772.023 838.25 773.938C838.25 775.852 837.312 776.945 835.875 776.945ZM841.008 778H842.367V773.219C842.367 771.844 843.203 770.938 844.484 770.938C845.734 770.938 846.352 771.656 846.352 772.969V778H847.711V772.727C847.711 770.883 846.68 769.734 844.898 769.734C843.641 769.734 842.773 770.297 842.32 771.172H842.289V769.875H841.008V778Z" fill="white" fill-opacity="0.8"/>
<rect x="565.5" y="702.5" width="316" height="104" rx="9.5" stroke="white" stroke-linejoin="round" stroke-dasharray="7 7"/>
<circle cx="565.5" cy="703.5" r="8.5" fill="#DB00FF"/>
<g filter="url(#filter2_d_1_6901)">
<circle cx="442.154" cy="1197.15" r="23.1541" fill="#DB00FF"/>
</g>
<path d="M442.153 1207.16C440.262 1207.16 438.693 1206.64 437.447 1205.62C436.2 1204.58 435.543 1203.25 435.475 1201.62H438.553C438.655 1202.47 439.041 1203.16 439.711 1203.7C440.389 1204.23 441.212 1204.5 442.178 1204.5C443.272 1204.5 444.158 1204.16 444.837 1203.47C445.523 1202.78 445.867 1201.9 445.867 1200.81C445.867 1199.71 445.523 1198.81 444.837 1198.11C444.158 1197.41 443.281 1197.06 442.204 1197.06C441.458 1197.06 440.775 1197.22 440.156 1197.54C439.545 1197.86 439.071 1198.31 438.731 1198.89H435.755L436.709 1188.44H447.953V1191.12H439.304L438.833 1196.49H438.91C439.291 1195.89 439.842 1195.43 440.563 1195.09C441.284 1194.74 442.093 1194.57 442.992 1194.57C444.747 1194.57 446.193 1195.15 447.329 1196.31C448.466 1197.46 449.034 1198.93 449.034 1200.72C449.034 1202.63 448.394 1204.18 447.113 1205.38C445.841 1206.56 444.188 1207.16 442.153 1207.16Z" fill="white"/>
<line x1="470" y1="1198.5" x2="566" y2="1198.5" stroke="#DB00FF"/>
<path d="M607.24 1220.91H612.719C614.125 1220.91 615.268 1221.34 616.146 1222.22C617.025 1223.08 617.465 1224.22 617.465 1225.62C617.465 1227.02 617.012 1228.16 616.107 1229.03C615.209 1229.91 614.044 1230.34 612.611 1230.34H609.76V1235H607.24V1220.91ZM609.76 1222.97V1228.31H612.045C612.95 1228.31 613.653 1228.08 614.154 1227.61C614.656 1227.14 614.906 1226.48 614.906 1225.62C614.906 1224.78 614.656 1224.12 614.154 1223.66C613.66 1223.2 612.96 1222.97 612.055 1222.97H609.76ZM619.135 1235V1220.91H621.537V1226.43H621.586C621.866 1225.79 622.286 1225.31 622.846 1224.97C623.406 1224.63 624.076 1224.45 624.857 1224.45C625.99 1224.45 626.876 1224.8 627.514 1225.5C628.158 1226.19 628.48 1227.13 628.48 1228.33V1235H626.049V1228.83C626.049 1228.09 625.867 1227.52 625.502 1227.12C625.144 1226.72 624.617 1226.51 623.92 1226.51C623.191 1226.51 622.615 1226.74 622.191 1227.21C621.775 1227.67 621.566 1228.28 621.566 1229.05V1235H619.135ZM634.213 1233.33C634.91 1233.33 635.495 1233.12 635.971 1232.71C636.452 1232.3 636.693 1231.78 636.693 1231.16V1230.37L634.301 1230.52C633.715 1230.56 633.259 1230.7 632.934 1230.96C632.615 1231.2 632.455 1231.53 632.455 1231.94C632.455 1232.37 632.615 1232.71 632.934 1232.96C633.259 1233.21 633.686 1233.33 634.213 1233.33ZM633.48 1235.17C632.471 1235.17 631.641 1234.88 630.99 1234.3C630.346 1233.72 630.023 1232.97 630.023 1232.04C630.023 1231.12 630.362 1230.4 631.039 1229.86C631.723 1229.33 632.696 1229.02 633.959 1228.95L636.693 1228.79V1228.05C636.693 1227.51 636.521 1227.09 636.176 1226.79C635.837 1226.49 635.365 1226.34 634.76 1226.34C634.193 1226.34 633.731 1226.46 633.373 1226.72C633.015 1226.97 632.797 1227.32 632.719 1227.75H630.463C630.515 1226.77 630.935 1225.97 631.723 1225.36C632.517 1224.74 633.562 1224.43 634.857 1224.43C636.14 1224.43 637.165 1224.75 637.934 1225.37C638.708 1226 639.096 1226.83 639.096 1227.87V1235H636.752V1233.35H636.703C636.41 1233.9 635.967 1234.35 635.375 1234.68C634.783 1235 634.151 1235.17 633.48 1235.17ZM640.873 1227.62C640.873 1226.67 641.257 1225.9 642.025 1225.31C642.794 1224.73 643.806 1224.43 645.062 1224.43C646.273 1224.43 647.257 1224.73 648.012 1225.33C648.773 1225.92 649.171 1226.7 649.203 1227.66H646.938C646.898 1227.21 646.71 1226.86 646.371 1226.6C646.033 1226.35 645.58 1226.22 645.014 1226.22C644.48 1226.22 644.05 1226.34 643.725 1226.57C643.399 1226.8 643.236 1227.1 643.236 1227.48C643.236 1228.05 643.731 1228.46 644.721 1228.7L646.566 1229.11C647.602 1229.35 648.34 1229.69 648.783 1230.13C649.226 1230.56 649.447 1231.17 649.447 1231.93C649.447 1232.91 649.037 1233.7 648.217 1234.31C647.396 1234.91 646.332 1235.21 645.023 1235.21C643.734 1235.21 642.696 1234.91 641.908 1234.33C641.127 1233.73 640.694 1232.94 640.609 1231.95H643.002C643.074 1232.43 643.288 1232.79 643.646 1233.05C644.011 1233.3 644.499 1233.43 645.111 1233.43C645.704 1233.43 646.169 1233.32 646.508 1233.1C646.853 1232.87 647.025 1232.56 647.025 1232.18C647.025 1231.88 646.918 1231.64 646.703 1231.46C646.495 1231.28 646.14 1231.13 645.639 1231L643.754 1230.56C641.833 1230.11 640.873 1229.13 640.873 1227.62ZM655.463 1226.32C654.786 1226.32 654.219 1226.55 653.764 1227.02C653.314 1227.48 653.064 1228.08 653.012 1228.81H657.846C657.82 1228.07 657.589 1227.47 657.152 1227.01C656.716 1226.55 656.153 1226.32 655.463 1226.32ZM657.855 1231.9H660.131C659.975 1232.89 659.477 1233.68 658.637 1234.3C657.797 1234.9 656.768 1235.21 655.551 1235.21C654.001 1235.21 652.784 1234.73 651.898 1233.78C651.013 1232.82 650.57 1231.52 650.57 1229.86C650.57 1228.22 651.01 1226.91 651.889 1225.92C652.774 1224.93 653.962 1224.43 655.453 1224.43C656.918 1224.43 658.08 1224.91 658.939 1225.85C659.799 1226.79 660.229 1228.04 660.229 1229.62V1230.41H652.992V1230.56C652.992 1231.39 653.227 1232.06 653.695 1232.57C654.171 1233.08 654.805 1233.33 655.6 1233.33C656.16 1233.33 656.641 1233.2 657.045 1232.95C657.455 1232.69 657.725 1232.34 657.855 1231.9ZM671.068 1235.28C669.617 1235.28 668.412 1234.89 667.455 1234.1C666.498 1233.31 665.993 1232.29 665.941 1231.04H668.305C668.383 1231.69 668.679 1232.22 669.193 1232.63C669.714 1233.04 670.346 1233.24 671.088 1233.24C671.928 1233.24 672.608 1232.98 673.129 1232.45C673.656 1231.92 673.92 1231.24 673.92 1230.41C673.92 1229.56 673.656 1228.87 673.129 1228.34C672.608 1227.8 671.934 1227.53 671.107 1227.53C670.535 1227.53 670.01 1227.65 669.535 1227.9C669.066 1228.15 668.702 1228.49 668.441 1228.94H666.156L666.889 1220.91H675.521V1222.97H668.881L668.52 1227.09H668.578C668.871 1226.63 669.294 1226.28 669.848 1226.02C670.401 1225.75 671.023 1225.62 671.713 1225.62C673.061 1225.62 674.171 1226.06 675.043 1226.95C675.915 1227.84 676.352 1228.97 676.352 1230.34C676.352 1231.81 675.86 1233 674.877 1233.92C673.9 1234.83 672.631 1235.28 671.068 1235.28Z" fill="white"/>
<path d="M615 1272.01C616.305 1272.01 617.375 1270.94 617.375 1269.63C617.375 1268.33 616.305 1267.26 615 1267.26C613.695 1267.26 612.625 1268.33 612.625 1269.63C612.625 1270.94 613.695 1272.01 615 1272.01ZM632.352 1274C634.75 1274 636.172 1272.82 636.172 1270.84C636.172 1269.34 635.188 1268.26 633.656 1268.06V1268C634.742 1267.8 635.602 1266.71 635.602 1265.54C635.602 1263.85 634.297 1262.73 632.367 1262.73H628.094V1274H632.352ZM629.5 1263.97H632.047C633.414 1263.97 634.18 1264.59 634.18 1265.7C634.18 1266.92 633.273 1267.59 631.609 1267.59H629.5V1263.97ZM629.5 1272.76V1268.8H632.008C633.805 1268.8 634.727 1269.46 634.727 1270.77C634.727 1272.07 633.836 1272.76 632.141 1272.76H629.5ZM644.227 1265.88H642.867V1270.65C642.867 1272.03 642.07 1272.94 640.75 1272.94C639.492 1272.94 638.875 1272.23 638.875 1270.91V1265.88H637.516V1271.15C637.516 1272.99 638.555 1274.14 640.328 1274.14C641.578 1274.14 642.422 1273.62 642.906 1272.68H642.938V1274H644.227V1265.88ZM646.062 1274H647.422V1265.88H646.062V1274ZM646.742 1264.51C647.211 1264.51 647.594 1264.12 647.594 1263.66C647.594 1263.2 647.211 1262.82 646.742 1262.82C646.281 1262.82 645.898 1263.2 645.898 1263.66C645.898 1264.12 646.281 1264.51 646.742 1264.51ZM649.328 1274H650.688V1262.73H649.328V1274ZM655.602 1274.14C656.773 1274.14 657.703 1273.56 658.227 1272.62H658.25V1274H659.547V1262.73H658.188V1267.2H658.156C657.672 1266.3 656.734 1265.73 655.57 1265.73C653.523 1265.73 652.125 1267.39 652.125 1269.94C652.125 1272.48 653.531 1274.14 655.602 1274.14ZM655.859 1266.93C657.258 1266.93 658.195 1268.12 658.195 1269.94C658.195 1271.76 657.258 1272.95 655.859 1272.95C654.422 1272.95 653.516 1271.78 653.516 1269.94C653.516 1268.1 654.422 1266.93 655.859 1266.93ZM674.383 1269.34V1268.27H669.797V1269.5H672.977V1269.7C672.977 1271.59 671.602 1272.89 669.602 1272.89C667.305 1272.89 665.883 1271.13 665.883 1268.3C665.883 1265.51 667.281 1263.84 669.602 1263.84C671.188 1263.84 672.367 1264.7 672.836 1266.23H674.312C673.891 1263.98 672.039 1262.54 669.602 1262.54C666.445 1262.54 664.438 1264.78 664.438 1268.3C664.438 1271.89 666.453 1274.19 669.602 1274.19C672.609 1274.19 674.383 1272.38 674.383 1269.34ZM687.297 1274V1262.73H685.664L681.773 1272.13H681.711L677.82 1262.73H676.188V1274H677.5V1265.31H677.555L681.148 1273.92H682.336L685.93 1265.31H685.984V1274H687.297ZM688.945 1270.9C689.078 1272.89 690.734 1274.19 693.125 1274.19C695.719 1274.19 697.344 1272.9 697.344 1270.84C697.344 1269.22 696.398 1268.32 694.062 1267.73L692.883 1267.42C691.352 1267.02 690.727 1266.52 690.727 1265.66C690.727 1264.56 691.742 1263.8 693.203 1263.8C694.672 1263.8 695.648 1264.55 695.773 1265.76H697.18C697.117 1263.87 695.492 1262.54 693.25 1262.54C690.906 1262.54 689.266 1263.85 689.266 1265.73C689.266 1267.26 690.188 1268.17 692.266 1268.7L693.711 1269.08C695.227 1269.47 695.891 1270.05 695.891 1271.01C695.891 1272.12 694.781 1272.92 693.258 1272.92C691.648 1272.92 690.492 1272.12 690.359 1270.9H688.945ZM700.195 1266.7V1262.73H698.945V1266.7H700.195ZM701.992 1268.12C701.992 1269.23 702.695 1269.96 704.125 1270.33L705.555 1270.7C706.469 1270.94 706.805 1271.25 706.805 1271.83C706.805 1272.56 706.125 1273.03 705.023 1273.03C703.922 1273.03 703.281 1272.58 703.133 1271.73H701.773C701.914 1273.17 703.156 1274.14 704.938 1274.14C706.836 1274.14 708.172 1273.14 708.172 1271.73C708.172 1270.53 707.578 1269.94 705.938 1269.52L704.68 1269.22C703.758 1268.98 703.328 1268.61 703.328 1268.05C703.328 1267.34 703.984 1266.84 704.977 1266.84C705.977 1266.84 706.609 1267.33 706.703 1268.11H708C707.938 1266.73 706.703 1265.73 705.023 1265.73C703.234 1265.73 701.992 1266.73 701.992 1268.12ZM716.234 1274.14C718.477 1274.14 719.992 1272.52 719.992 1269.94C719.992 1267.34 718.477 1265.73 716.234 1265.73C713.984 1265.73 712.469 1267.34 712.469 1269.94C712.469 1272.52 713.984 1274.14 716.234 1274.14ZM716.234 1272.95C714.797 1272.95 713.852 1271.85 713.852 1269.94C713.852 1268.02 714.797 1266.93 716.234 1266.93C717.672 1266.93 718.609 1268.02 718.609 1269.94C718.609 1271.85 717.672 1272.95 716.234 1272.95ZM731.703 1265.88H730.359L728.734 1272.48H728.703L726.859 1265.88H725.547L723.711 1272.48H723.68L722.055 1265.88H720.703L722.977 1274H724.359L726.188 1267.71H726.219L728.055 1274H729.438L731.703 1265.88ZM732.82 1274H734.18V1269.22C734.18 1267.84 735.016 1266.94 736.297 1266.94C737.547 1266.94 738.164 1267.66 738.164 1268.97V1274H739.523V1268.73C739.523 1266.88 738.492 1265.73 736.711 1265.73C735.453 1265.73 734.586 1266.3 734.133 1267.17H734.102V1265.88H732.82V1274ZM744.539 1274H745.898V1268.91C745.898 1267.78 746.68 1266.94 747.758 1266.94C748.766 1266.94 749.422 1267.58 749.422 1268.55V1274H750.781V1268.84C750.781 1267.73 751.539 1266.94 752.617 1266.94C753.688 1266.94 754.305 1267.59 754.305 1268.7V1274H755.664V1268.39C755.664 1266.78 754.625 1265.73 753.016 1265.73C751.875 1265.73 750.922 1266.31 750.469 1267.28H750.438C750.086 1266.3 749.266 1265.73 748.156 1265.73C747.062 1265.73 746.234 1266.31 745.852 1267.17H745.82V1265.88H744.539V1274ZM757.469 1274H758.828V1265.88H757.469V1274ZM758.148 1264.51C758.617 1264.51 759 1264.12 759 1263.66C759 1263.2 758.617 1262.82 758.148 1262.82C757.688 1262.82 757.305 1263.2 757.305 1263.66C757.305 1264.12 757.688 1264.51 758.148 1264.51ZM760.664 1274H762.023V1269.22C762.023 1267.84 762.859 1266.94 764.141 1266.94C765.391 1266.94 766.008 1267.66 766.008 1268.97V1274H767.367V1268.73C767.367 1266.88 766.336 1265.73 764.555 1265.73C763.297 1265.73 762.43 1266.3 761.977 1267.17H761.945V1265.88H760.664V1274ZM769.172 1274H770.531V1265.88H769.172V1274ZM769.852 1264.51C770.32 1264.51 770.703 1264.12 770.703 1263.66C770.703 1263.2 770.32 1262.82 769.852 1262.82C769.391 1262.82 769.008 1263.2 769.008 1263.66C769.008 1264.12 769.391 1264.51 769.852 1264.51ZM772.367 1274H773.727V1269.22C773.727 1267.84 774.562 1266.94 775.844 1266.94C777.094 1266.94 777.711 1267.66 777.711 1268.97V1274H779.07V1268.73C779.07 1266.88 778.039 1265.73 776.258 1265.73C775 1265.73 774.133 1266.3 773.68 1267.17H773.648V1265.88H772.367V1274ZM784.109 1272.87C782.711 1272.87 781.797 1271.73 781.797 1269.91C781.797 1268.09 782.711 1266.93 784.109 1266.93C785.523 1266.93 786.469 1268.12 786.469 1269.91C786.469 1271.7 785.523 1272.87 784.109 1272.87ZM784.156 1277.06C786.398 1277.06 787.828 1275.77 787.828 1273.84V1265.88H786.531V1267.24H786.508C785.969 1266.3 785.016 1265.73 783.867 1265.73C781.766 1265.73 780.406 1267.36 780.406 1269.91C780.406 1272.43 781.766 1274.06 783.836 1274.06C784.977 1274.06 785.938 1273.48 786.438 1272.6H786.469V1273.88C786.469 1275.09 785.617 1275.91 784.211 1275.91C783.195 1275.91 782.391 1275.41 782.125 1274.67H780.727C780.953 1276.05 782.367 1277.06 784.156 1277.06ZM793.32 1274H794.68V1266.99H796.336V1265.88H794.672V1264.98C794.672 1264.17 795.023 1263.78 795.758 1263.78C795.984 1263.78 796.211 1263.8 796.375 1263.83V1262.73C796.18 1262.7 795.852 1262.66 795.547 1262.66C794.047 1262.66 793.32 1263.41 793.32 1264.97V1265.88H792.188V1266.99H793.32V1274ZM799.953 1272.98C798.977 1272.98 798.328 1272.48 798.328 1271.7C798.328 1270.94 798.953 1270.45 800.047 1270.38L802.219 1270.25V1270.91C802.219 1272.09 801.234 1272.98 799.953 1272.98ZM799.648 1274.14C800.742 1274.14 801.773 1273.53 802.258 1272.6H802.289V1274H803.578V1268.38C803.578 1266.77 802.375 1265.73 800.469 1265.73C798.547 1265.73 797.344 1266.81 797.25 1268.22H798.562C798.734 1267.42 799.391 1266.93 800.438 1266.93C801.562 1266.93 802.219 1267.52 802.219 1268.52V1269.2L799.891 1269.33C798.016 1269.44 796.945 1270.31 796.945 1271.7C796.945 1273.16 798.031 1274.14 799.648 1274.14ZM812.055 1268.54C811.883 1267.08 810.672 1265.73 808.641 1265.73C806.398 1265.73 804.906 1267.38 804.906 1269.94C804.906 1272.55 806.406 1274.14 808.656 1274.14C810.5 1274.14 811.859 1273 812.07 1271.38H810.734C810.5 1272.36 809.773 1272.95 808.664 1272.95C807.258 1272.95 806.289 1271.83 806.289 1269.94C806.289 1268.09 807.242 1266.93 808.648 1266.93C809.844 1266.93 810.531 1267.66 810.727 1268.54H812.055ZM813.391 1274H814.75V1265.88H813.391V1274ZM814.07 1264.51C814.539 1264.51 814.922 1264.12 814.922 1263.66C814.922 1263.2 814.539 1262.82 814.07 1262.82C813.609 1262.82 813.227 1263.2 813.227 1263.66C813.227 1264.12 813.609 1264.51 814.07 1264.51ZM816.656 1274H818.016V1262.73H816.656V1274ZM819.922 1274H821.281V1265.88H819.922V1274ZM820.602 1264.51C821.07 1264.51 821.453 1264.12 821.453 1263.66C821.453 1263.2 821.07 1262.82 820.602 1262.82C820.141 1262.82 819.758 1263.2 819.758 1263.66C819.758 1264.12 820.141 1264.51 820.602 1264.51ZM823.555 1263.91V1265.88H822.344V1266.99H823.555V1271.89C823.555 1273.45 824.133 1274.06 825.625 1274.06C825.945 1274.06 826.32 1274.04 826.484 1274V1272.86C826.391 1272.88 826.078 1272.9 825.922 1272.9C825.227 1272.9 824.914 1272.56 824.914 1271.82V1266.99H826.492V1265.88H824.914V1263.91H823.555ZM828.617 1277.04C830.086 1277.04 830.758 1276.47 831.453 1274.57L834.648 1265.88H833.219L830.969 1272.64H830.945L828.695 1265.88H827.242L830.242 1274.01L830.055 1274.58C829.742 1275.52 829.32 1275.89 828.562 1275.89C828.391 1275.89 828.18 1275.88 828.031 1275.85V1276.99C828.18 1277.02 828.453 1277.04 828.617 1277.04ZM849.344 1265.88H848L846.375 1272.48H846.344L844.5 1265.88H843.188L841.352 1272.48H841.32L839.695 1265.88H838.344L840.617 1274H842L843.828 1267.71H843.859L845.695 1274H847.078L849.344 1265.88ZM850.531 1274H851.891V1265.88H850.531V1274ZM851.211 1264.51C851.68 1264.51 852.062 1264.12 852.062 1263.66C852.062 1263.2 851.68 1262.82 851.211 1262.82C850.75 1262.82 850.367 1263.2 850.367 1263.66C850.367 1264.12 850.75 1264.51 851.211 1264.51ZM854.164 1263.91V1265.88H852.953V1266.99H854.164V1271.89C854.164 1273.45 854.742 1274.06 856.234 1274.06C856.555 1274.06 856.93 1274.04 857.094 1274V1272.86C857 1272.88 856.688 1272.9 856.531 1272.9C855.836 1272.9 855.523 1272.56 855.523 1271.82V1266.99H857.102V1265.88H855.523V1263.91H854.164ZM858.625 1274H859.984V1269.27C859.984 1267.86 860.82 1266.94 862.172 1266.94C863.445 1266.94 864.094 1267.71 864.094 1269V1274H865.453V1268.75C865.453 1266.94 864.375 1265.73 862.594 1265.73C861.359 1265.73 860.469 1266.27 860.016 1267.17H859.984V1262.73H858.625V1274ZM880.18 1269.34V1268.27H875.594V1269.5H878.773V1269.7C878.773 1271.59 877.398 1272.89 875.398 1272.89C873.102 1272.89 871.68 1271.13 871.68 1268.3C871.68 1265.51 873.078 1263.84 875.398 1263.84C876.984 1263.84 878.164 1264.7 878.633 1266.23H880.109C879.688 1263.98 877.836 1262.54 875.398 1262.54C872.242 1262.54 870.234 1264.78 870.234 1268.3C870.234 1271.89 872.25 1274.19 875.398 1274.19C878.406 1274.19 880.18 1272.38 880.18 1269.34ZM893.094 1274V1262.73H891.461L887.57 1272.13H887.508L883.617 1262.73H881.984V1274H883.297V1265.31H883.352L886.945 1273.92H888.133L891.727 1265.31H891.781V1274H893.094ZM894.742 1270.9C894.875 1272.89 896.531 1274.19 898.922 1274.19C901.516 1274.19 903.141 1272.9 903.141 1270.84C903.141 1269.22 902.195 1268.32 899.859 1267.73L898.68 1267.42C897.148 1267.02 896.523 1266.52 896.523 1265.66C896.523 1264.56 897.539 1263.8 899 1263.8C900.469 1263.8 901.445 1264.55 901.57 1265.76H902.977C902.914 1263.87 901.289 1262.54 899.047 1262.54C896.703 1262.54 895.062 1263.85 895.062 1265.73C895.062 1267.26 895.984 1268.17 898.062 1268.7L899.508 1269.08C901.023 1269.47 901.688 1270.05 901.688 1271.01C901.688 1272.12 900.578 1272.92 899.055 1272.92C897.445 1272.92 896.289 1272.12 896.156 1270.9H894.742ZM908.289 1274H909.648V1266.99H911.305V1265.88H909.641V1264.98C909.641 1264.17 909.992 1263.78 910.727 1263.78C910.953 1263.78 911.18 1263.8 911.344 1263.83V1262.73C911.148 1262.7 910.82 1262.66 910.516 1262.66C909.016 1262.66 908.289 1263.41 908.289 1264.97V1265.88H907.156V1266.99H908.289V1274ZM914.922 1272.98C913.945 1272.98 913.297 1272.48 913.297 1271.7C913.297 1270.94 913.922 1270.45 915.016 1270.38L917.188 1270.25V1270.91C917.188 1272.09 916.203 1272.98 914.922 1272.98ZM914.617 1274.14C915.711 1274.14 916.742 1273.53 917.227 1272.6H917.258V1274H918.547V1268.38C918.547 1266.77 917.344 1265.73 915.438 1265.73C913.516 1265.73 912.312 1266.81 912.219 1268.22H913.531C913.703 1267.42 914.359 1266.93 915.406 1266.93C916.531 1266.93 917.188 1267.52 917.188 1268.52V1269.2L914.859 1269.33C912.984 1269.44 911.914 1270.31 911.914 1271.7C911.914 1273.16 913 1274.14 914.617 1274.14ZM920.273 1274H921.633V1268.91C921.633 1267.78 922.414 1266.94 923.492 1266.94C924.5 1266.94 925.156 1267.58 925.156 1268.55V1274H926.516V1268.84C926.516 1267.73 927.273 1266.94 928.352 1266.94C929.422 1266.94 930.039 1267.59 930.039 1268.7V1274H931.398V1268.39C931.398 1266.78 930.359 1265.73 928.75 1265.73C927.609 1265.73 926.656 1266.31 926.203 1267.28H926.172C925.82 1266.3 925 1265.73 923.891 1265.73C922.797 1265.73 921.969 1266.31 921.586 1267.17H921.555V1265.88H920.273V1274ZM932.992 1268.12C932.992 1269.23 933.695 1269.96 935.125 1270.33L936.555 1270.7C937.469 1270.94 937.805 1271.25 937.805 1271.83C937.805 1272.56 937.125 1273.03 936.023 1273.03C934.922 1273.03 934.281 1272.58 934.133 1271.73H932.773C932.914 1273.17 934.156 1274.14 935.938 1274.14C937.836 1274.14 939.172 1273.14 939.172 1271.73C939.172 1270.53 938.578 1269.94 936.938 1269.52L935.68 1269.22C934.758 1268.98 934.328 1268.61 934.328 1268.05C934.328 1267.34 934.984 1266.84 935.977 1266.84C936.977 1266.84 937.609 1267.33 937.703 1268.11H939C938.938 1266.73 937.703 1265.73 936.023 1265.73C934.234 1265.73 932.992 1266.73 932.992 1268.12Z" fill="white" fill-opacity="0.8"/>
<rect x="565.5" y="1198.5" width="380" height="104" rx="9.5" stroke="white" stroke-linejoin="round" stroke-dasharray="7 7"/>
<circle cx="565.5" cy="1199.5" r="8.5" fill="#DB00FF"/>
<line x1="347" y1="454.5" x2="443" y2="454.5" stroke="#DB00FF"/>
<path d="M22.1782 475.613H27.3828C28.7188 475.613 29.8042 476.027 30.6392 476.856C31.4741 477.679 31.8916 478.758 31.8916 480.094C31.8916 481.424 31.4618 482.503 30.6021 483.332C29.7485 484.16 28.6414 484.575 27.2808 484.575H24.5718V489H22.1782V475.613ZM24.5718 477.57V482.645H26.7427C27.6024 482.645 28.2703 482.422 28.7466 481.977C29.2228 481.532 29.4609 480.904 29.4609 480.094C29.4609 479.29 29.2228 478.668 28.7466 478.229C28.2765 477.79 27.6117 477.57 26.752 477.57H24.5718ZM33.668 489V475.613H35.9503V480.854H35.9966C36.2626 480.255 36.6615 479.794 37.1934 479.472C37.7253 479.144 38.3624 478.98 39.1046 478.98C40.1807 478.98 41.0219 479.311 41.628 479.973C42.2403 480.629 42.5464 481.526 42.5464 482.664V489H40.2364V483.137C40.2364 482.438 40.0632 481.897 39.7169 481.513C39.3767 481.13 38.8757 480.938 38.2139 480.938C37.5212 480.938 36.9739 481.158 36.5718 481.597C36.176 482.036 35.9781 482.62 35.9781 483.35V489H33.668ZM48.1822 487.414C48.844 487.414 49.4007 487.219 49.8522 486.829C50.3098 486.433 50.5387 485.942 50.5387 485.354V484.603L48.2657 484.742C47.7091 484.779 47.2762 484.918 46.9669 485.159C46.6639 485.394 46.5123 485.707 46.5123 486.096C46.5123 486.498 46.6639 486.82 46.9669 487.061C47.2762 487.296 47.6813 487.414 48.1822 487.414ZM47.4864 489.158C46.5278 489.158 45.7392 488.882 45.1207 488.332C44.5084 487.782 44.2023 487.067 44.2023 486.189C44.2023 485.317 44.5239 484.627 45.1671 484.12C45.8165 483.613 46.7412 483.322 47.941 483.248L50.5387 483.1V482.395C50.5387 481.881 50.3748 481.482 50.047 481.198C49.7254 480.913 49.277 480.771 48.7018 480.771C48.1637 480.771 47.7246 480.892 47.3844 481.133C47.0442 481.374 46.837 481.702 46.7628 482.116H44.6197C44.6692 481.182 45.0682 480.425 45.8165 479.843C46.5711 479.256 47.5638 478.962 48.7945 478.962C50.013 478.962 50.9871 479.259 51.7169 479.853C52.4529 480.446 52.8209 481.238 52.8209 482.228V489H50.5944V487.432H50.548C50.2696 487.958 49.8491 488.378 49.2862 488.694C48.7234 489.003 48.1235 489.158 47.4864 489.158ZM54.6994 481.986C54.6994 481.083 55.0643 480.354 55.7941 479.797C56.5239 479.24 57.4857 478.962 58.6794 478.962C59.8298 478.962 60.7637 479.246 61.4811 479.815C62.2048 480.378 62.582 481.114 62.613 482.023H60.4606C60.4235 481.597 60.2442 481.263 59.9225 481.021C59.6009 480.78 59.1711 480.66 58.633 480.66C58.1258 480.66 57.7176 480.771 57.4084 480.994C57.0991 481.21 56.9445 481.498 56.9445 481.856C56.9445 482.401 57.4146 482.787 58.3547 483.016L60.1081 483.406C61.0915 483.635 61.7935 483.956 62.214 484.371C62.6346 484.785 62.8449 485.357 62.8449 486.087C62.8449 487.015 62.4553 487.766 61.676 488.341C60.8967 488.91 59.8854 489.195 58.6423 489.195C57.4177 489.195 56.4312 488.917 55.6828 488.36C54.9406 487.797 54.5293 487.046 54.4489 486.105H56.7219C56.7899 486.557 56.994 486.903 57.3342 487.145C57.6805 487.386 58.1444 487.506 58.7258 487.506C59.2886 487.506 59.7308 487.401 60.0524 487.191C60.3802 486.974 60.5441 486.684 60.5441 486.319C60.5441 486.034 60.4421 485.809 60.238 485.642C60.0401 485.468 59.703 485.32 59.2267 485.196L57.4362 484.779C55.6117 484.352 54.6994 483.421 54.6994 481.986ZM68.7497 480.752C68.1065 480.752 67.5684 480.975 67.1355 481.42C66.7087 481.86 66.4706 482.425 66.4211 483.118H71.0134C70.9887 482.419 70.7691 481.85 70.3547 481.411C69.9403 480.972 69.4053 480.752 68.7497 480.752ZM71.0227 486.059H73.1843C73.0359 486.993 72.5627 487.751 71.7649 488.332C70.967 488.907 69.9898 489.195 68.8332 489.195C67.3612 489.195 66.2047 488.743 65.3635 487.84C64.5224 486.931 64.1018 485.691 64.1018 484.12C64.1018 482.562 64.5193 481.312 65.3542 480.372C66.1954 479.432 67.3241 478.962 68.7405 478.962C70.1321 478.962 71.2361 479.41 72.0525 480.307C72.8689 481.198 73.2771 482.391 73.2771 483.888V484.64H66.4026V484.779C66.4026 485.57 66.6252 486.208 67.0705 486.69C67.522 487.172 68.1251 487.414 68.8796 487.414C69.4115 487.414 69.8692 487.293 70.2527 487.052C70.6423 486.804 70.899 486.473 71.0227 486.059ZM78.871 479.583C78.871 478.347 79.3163 477.332 80.2069 476.541C81.0975 475.743 82.2355 475.344 83.621 475.344C84.9507 475.344 86.0454 475.706 86.9051 476.429C87.771 477.153 88.204 478.059 88.204 479.147C88.204 479.896 87.9937 480.604 87.5731 481.272C87.1587 481.934 86.4691 482.75 85.5043 483.721L82.1922 486.996V487.042H88.4081V489H79.0008V487.386L83.9271 482.487C84.6879 481.708 85.2012 481.099 85.4671 480.66C85.7331 480.221 85.8661 479.75 85.8661 479.25C85.8661 478.693 85.6434 478.223 85.1981 477.839C84.759 477.456 84.2085 477.264 83.5467 477.264C82.8478 477.264 82.2665 477.484 81.8026 477.923C81.3449 478.362 81.1161 478.912 81.1161 479.574V479.611H78.871V479.583Z" fill="white"/>
<path d="M35 526.008C36.3047 526.008 37.375 524.938 37.375 523.633C37.375 522.328 36.3047 521.258 35 521.258C33.6953 521.258 32.625 522.328 32.625 523.633C32.625 524.938 33.6953 526.008 35 526.008ZM50.7891 528H52.1484V516.727H50.7734L47.7734 518.883V520.367L50.7578 518.219H50.7891V528ZM58.8828 528.188C61.2344 528.188 62.8984 526.602 62.8984 524.336C62.8984 522.148 61.3359 520.562 59.1719 520.562C58.0938 520.562 57.1562 520.969 56.6484 521.648H56.6172L56.9609 517.977H62.2578V516.727H55.8047L55.1875 523.039H56.5078C56.9688 522.25 57.8672 521.773 58.9219 521.773C60.4219 521.773 61.4922 522.859 61.4922 524.375C61.4922 525.891 60.4297 526.953 58.8984 526.953C57.5469 526.953 56.5234 526.125 56.3984 524.922H55.0156C55.1328 526.844 56.7266 528.188 58.8828 528.188ZM68.3125 528.188C70.9375 528.188 72.4531 525.914 72.4531 522.352C72.4531 518.812 70.9297 516.539 68.3125 516.539C65.6953 516.539 64.1562 518.828 64.1562 522.359C64.1562 525.922 65.6797 528.188 68.3125 528.188ZM68.3125 526.961C66.5469 526.961 65.5703 525.164 65.5703 522.352C65.5703 519.602 66.5703 517.773 68.3125 517.773C70.0547 517.773 71.0391 519.586 71.0391 522.359C71.0391 525.172 70.0703 526.961 68.3125 526.961ZM83.7578 523.336V522.266H79.1719V523.5H82.3516V523.703C82.3516 525.594 80.9766 526.891 78.9766 526.891C76.6797 526.891 75.2578 525.133 75.2578 522.297C75.2578 519.508 76.6562 517.836 78.9766 517.836C80.5625 517.836 81.7422 518.703 82.2109 520.227H83.6875C83.2656 517.984 81.4141 516.539 78.9766 516.539C75.8203 516.539 73.8125 518.781 73.8125 522.305C73.8125 525.891 75.8281 528.188 78.9766 528.188C81.9844 528.188 83.7578 526.383 83.7578 523.336ZM94.5625 528V516.727H93.1562V521.602H86.9688V516.727H85.5625V528H86.9688V522.867H93.1562V528H94.5625ZM103.188 528.141C105.43 528.141 106.945 526.523 106.945 523.938C106.945 521.344 105.43 519.734 103.188 519.734C100.938 519.734 99.4219 521.344 99.4219 523.938C99.4219 526.523 100.938 528.141 103.188 528.141ZM103.188 526.945C101.75 526.945 100.805 525.852 100.805 523.938C100.805 522.023 101.75 520.93 103.188 520.93C104.625 520.93 105.562 522.023 105.562 523.938C105.562 525.852 104.625 526.945 103.188 526.945ZM108.758 528H110.117V520.992H111.773V519.875H110.109V518.977C110.109 518.172 110.461 517.781 111.195 517.781C111.422 517.781 111.648 517.805 111.812 517.828V516.727C111.617 516.695 111.289 516.664 110.984 516.664C109.484 516.664 108.758 517.406 108.758 518.969V519.875H107.625V520.992H108.758V528ZM125.672 528V516.727H124.266V521.602H118.078V516.727H116.672V528H118.078V522.867H124.266V528H125.672ZM130.094 526.984C129.117 526.984 128.469 526.477 128.469 525.703C128.469 524.938 129.094 524.453 130.188 524.383L132.359 524.25V524.914C132.359 526.086 131.375 526.984 130.094 526.984ZM129.789 528.141C130.883 528.141 131.914 527.531 132.398 526.602H132.43V528H133.719V522.383C133.719 520.766 132.516 519.734 130.609 519.734C128.688 519.734 127.484 520.812 127.391 522.219H128.703C128.875 521.422 129.531 520.93 130.578 520.93C131.703 520.93 132.359 521.523 132.359 522.516V523.195L130.031 523.328C128.156 523.438 127.086 524.312 127.086 525.703C127.086 527.164 128.172 528.141 129.789 528.141ZM135.305 522.117C135.305 523.227 136.008 523.961 137.438 524.328L138.867 524.695C139.781 524.938 140.117 525.25 140.117 525.828C140.117 526.562 139.438 527.031 138.336 527.031C137.234 527.031 136.594 526.578 136.445 525.734H135.086C135.227 527.172 136.469 528.141 138.25 528.141C140.148 528.141 141.484 527.141 141.484 525.727C141.484 524.531 140.891 523.938 139.25 523.523L137.992 523.219C137.07 522.984 136.641 522.609 136.641 522.047C136.641 521.336 137.297 520.844 138.289 520.844C139.289 520.844 139.922 521.328 140.016 522.109H141.312C141.25 520.734 140.016 519.734 138.336 519.734C136.547 519.734 135.305 520.727 135.305 522.117ZM142.969 528H144.328V523.266C144.328 521.859 145.164 520.938 146.516 520.938C147.789 520.938 148.438 521.711 148.438 523V528H149.797V522.75C149.797 520.938 148.719 519.734 146.938 519.734C145.703 519.734 144.812 520.266 144.359 521.172H144.328V516.727H142.969V528ZM158.75 519.734C157.57 519.734 156.625 520.336 156.125 521.25H156.094V519.875H154.805V530.711H156.164V526.68H156.195C156.68 527.57 157.617 528.141 158.781 528.141C160.828 528.141 162.227 526.484 162.227 523.938C162.227 521.391 160.82 519.734 158.75 519.734ZM158.484 526.945C157.094 526.945 156.156 525.75 156.156 523.938C156.156 522.133 157.094 520.93 158.484 520.93C159.93 520.93 160.836 522.102 160.836 523.938C160.836 525.781 159.93 526.945 158.484 526.945ZM166.969 528.141C169.211 528.141 170.727 526.523 170.727 523.938C170.727 521.344 169.211 519.734 166.969 519.734C164.719 519.734 163.203 521.344 163.203 523.938C163.203 526.523 164.719 528.141 166.969 528.141ZM166.969 526.945C165.531 526.945 164.586 525.852 164.586 523.938C164.586 522.023 165.531 520.93 166.969 520.93C168.406 520.93 169.344 522.023 169.344 523.938C169.344 525.852 168.406 526.945 166.969 526.945ZM182.438 519.875H181.094L179.469 526.484H179.438L177.594 519.875H176.281L174.445 526.484H174.414L172.789 519.875H171.438L173.711 528H175.094L176.922 521.711H176.953L178.789 528H180.172L182.438 519.875ZM186.812 520.914C188.094 520.914 188.945 521.883 188.977 523.242H184.562C184.648 521.891 185.539 520.914 186.812 520.914ZM188.945 525.672C188.719 526.438 187.961 526.961 186.93 526.961C185.469 526.961 184.555 525.938 184.555 524.383V524.305H190.383V523.789C190.383 521.328 189.031 519.734 186.836 519.734C184.594 519.734 183.156 521.445 183.156 523.969C183.156 526.523 184.57 528.141 186.898 528.141C188.672 528.141 190.047 527.094 190.281 525.672H188.945ZM191.758 528H193.117V522.938C193.117 521.789 193.805 521.031 194.859 521.031C195.188 521.031 195.477 521.07 195.586 521.109V519.789C195.477 519.773 195.273 519.734 195.039 519.734C194.086 519.734 193.336 520.305 193.07 521.203H193.039V519.875H191.758V528ZM202.656 526.984C201.68 526.984 201.031 526.477 201.031 525.703C201.031 524.938 201.656 524.453 202.75 524.383L204.922 524.25V524.914C204.922 526.086 203.938 526.984 202.656 526.984ZM202.352 528.141C203.445 528.141 204.477 527.531 204.961 526.602H204.992V528H206.281V522.383C206.281 520.766 205.078 519.734 203.172 519.734C201.25 519.734 200.047 520.812 199.953 522.219H201.266C201.438 521.422 202.094 520.93 203.141 520.93C204.266 520.93 204.922 521.523 204.922 522.516V523.195L202.594 523.328C200.719 523.438 199.648 524.312 199.648 525.703C199.648 527.164 200.734 528.141 202.352 528.141ZM214.758 522.539C214.586 521.078 213.375 519.734 211.344 519.734C209.102 519.734 207.609 521.375 207.609 523.938C207.609 526.555 209.109 528.141 211.359 528.141C213.203 528.141 214.562 527 214.773 525.383H213.438C213.203 526.359 212.477 526.945 211.367 526.945C209.961 526.945 208.992 525.828 208.992 523.938C208.992 522.094 209.945 520.93 211.352 520.93C212.547 520.93 213.234 521.656 213.43 522.539H214.758ZM216.461 517.914V519.875H215.25V520.992H216.461V525.891C216.461 527.453 217.039 528.062 218.531 528.062C218.852 528.062 219.227 528.039 219.391 528V526.859C219.297 526.875 218.984 526.898 218.828 526.898C218.133 526.898 217.82 526.562 217.82 525.82V520.992H219.398V519.875H217.82V517.914H216.461ZM220.922 528H222.281V519.875H220.922V528ZM221.602 518.508C222.07 518.508 222.453 518.125 222.453 517.664C222.453 517.195 222.07 516.82 221.602 516.82C221.141 516.82 220.758 517.195 220.758 517.664C220.758 518.125 221.141 518.508 221.602 518.508ZM230.781 519.875H229.367L227.117 526.555H227.086L224.844 519.875H223.414L226.406 528H227.797L230.781 519.875ZM234.375 526.984C233.398 526.984 232.75 526.477 232.75 525.703C232.75 524.938 233.375 524.453 234.469 524.383L236.641 524.25V524.914C236.641 526.086 235.656 526.984 234.375 526.984ZM234.07 528.141C235.164 528.141 236.195 527.531 236.68 526.602H236.711V528H238V522.383C238 520.766 236.797 519.734 234.891 519.734C232.969 519.734 231.766 520.812 231.672 522.219H232.984C233.156 521.422 233.812 520.93 234.859 520.93C235.984 520.93 236.641 521.523 236.641 522.516V523.195L234.312 523.328C232.438 523.438 231.367 524.312 231.367 525.703C231.367 527.164 232.453 528.141 234.07 528.141ZM240.164 517.914V519.875H238.953V520.992H240.164V525.891C240.164 527.453 240.742 528.062 242.234 528.062C242.555 528.062 242.93 528.039 243.094 528V526.859C243 526.875 242.688 526.898 242.531 526.898C241.836 526.898 241.523 526.562 241.523 525.82V520.992H243.102V519.875H241.523V517.914H240.164ZM244.625 528H245.984V519.875H244.625V528ZM245.305 518.508C245.773 518.508 246.156 518.125 246.156 517.664C246.156 517.195 245.773 516.82 245.305 516.82C244.844 516.82 244.461 517.195 244.461 517.664C244.461 518.125 244.844 518.508 245.305 518.508ZM251.188 528.141C253.43 528.141 254.945 526.523 254.945 523.938C254.945 521.344 253.43 519.734 251.188 519.734C248.938 519.734 247.422 521.344 247.422 523.938C247.422 526.523 248.938 528.141 251.188 528.141ZM251.188 526.945C249.75 526.945 248.805 525.852 248.805 523.938C248.805 522.023 249.75 520.93 251.188 520.93C252.625 520.93 253.562 522.023 253.562 523.938C253.562 525.852 252.625 526.945 251.188 526.945ZM256.32 528H257.68V523.219C257.68 521.844 258.516 520.938 259.797 520.938C261.047 520.938 261.664 521.656 261.664 522.969V528H263.023V522.727C263.023 520.883 261.992 519.734 260.211 519.734C258.953 519.734 258.086 520.297 257.633 521.172H257.602V519.875H256.32V528Z" fill="white" fill-opacity="0.8"/>
<rect x="0.5" y="453.5" width="316" height="104" rx="9.5" stroke="white" stroke-linejoin="round" stroke-dasharray="7 7"/>
<circle cx="337.5" cy="454.5" r="8.5" fill="#DB00FF"/>
<g filter="url(#filter3_d_1_6901)">
<circle cx="442.154" cy="454.154" r="23.1541" fill="#DB00FF"/>
</g>
<path d="M435.183 451.09C435.183 449.394 435.793 448.004 437.014 446.918C438.235 445.825 439.796 445.278 441.695 445.278C443.518 445.278 445.019 445.774 446.197 446.766C447.385 447.758 447.978 449 447.978 450.493C447.978 451.519 447.69 452.489 447.113 453.405C446.545 454.312 445.6 455.432 444.277 456.763L439.736 461.253V461.316H448.258V464H435.361V461.787L442.115 455.071C443.158 454.003 443.861 453.168 444.226 452.566C444.591 451.964 444.773 451.319 444.773 450.632C444.773 449.869 444.468 449.225 443.857 448.699C443.255 448.173 442.5 447.911 441.593 447.911C440.635 447.911 439.838 448.212 439.202 448.814C438.575 449.416 438.261 450.17 438.261 451.078V451.128H435.183V451.09Z" fill="white"/>
<line x1="347" y1="950.5" x2="443" y2="950.5" stroke="#DB00FF"/>
<path d="M21.1782 971.613H26.3828C27.7188 971.613 28.8042 972.027 29.6392 972.856C30.4741 973.678 30.8916 974.758 30.8916 976.094C30.8916 977.423 30.4618 978.503 29.6021 979.331C28.7485 980.16 27.6414 980.575 26.2808 980.575H23.5718V985H21.1782V971.613ZM23.5718 973.57V978.645H25.7427C26.6024 978.645 27.2703 978.422 27.7466 977.977C28.2228 977.532 28.4609 976.904 28.4609 976.094C28.4609 975.29 28.2228 974.668 27.7466 974.229C27.2765 973.79 26.6117 973.57 25.752 973.57H23.5718ZM32.668 985V971.613H34.9503V976.854H34.9966C35.2626 976.254 35.6615 975.794 36.1934 975.472C36.7253 975.144 37.3624 974.98 38.1046 974.98C39.1807 974.98 40.0219 975.311 40.628 975.973C41.2403 976.629 41.5464 977.525 41.5464 978.663V985H39.2364V979.137C39.2364 978.438 39.0632 977.897 38.7169 977.513C38.3767 977.13 37.8757 976.938 37.2139 976.938C36.5212 976.938 35.9739 977.157 35.5718 977.597C35.176 978.036 34.9781 978.62 34.9781 979.35V985H32.668ZM47.1822 983.413C47.844 983.413 48.4007 983.219 48.8522 982.829C49.3098 982.433 49.5387 981.941 49.5387 981.354V980.602L47.2657 980.742C46.7091 980.779 46.2762 980.918 45.9669 981.159C45.6639 981.394 45.5123 981.706 45.5123 982.096C45.5123 982.498 45.6639 982.82 45.9669 983.061C46.2762 983.296 46.6813 983.413 47.1822 983.413ZM46.4864 985.158C45.5278 985.158 44.7392 984.882 44.1207 984.332C43.5084 983.781 43.2023 983.067 43.2023 982.189C43.2023 981.317 43.5239 980.627 44.1671 980.12C44.8165 979.613 45.7412 979.322 46.941 979.248L49.5387 979.099V978.394C49.5387 977.881 49.3748 977.482 49.047 977.198C48.7254 976.913 48.277 976.771 47.7018 976.771C47.1637 976.771 46.7246 976.891 46.3844 977.133C46.0442 977.374 45.837 977.702 45.7628 978.116H43.6197C43.6692 977.182 44.0682 976.425 44.8165 975.843C45.5711 975.256 46.5638 974.962 47.7945 974.962C49.013 974.962 49.9871 975.259 50.7169 975.852C51.4529 976.446 51.8209 977.238 51.8209 978.227V985H49.5944V983.432H49.548C49.2696 983.958 48.8491 984.378 48.2862 984.694C47.7234 985.003 47.1235 985.158 46.4864 985.158ZM53.6994 977.986C53.6994 977.083 54.0643 976.353 54.7941 975.797C55.5239 975.24 56.4857 974.962 57.6794 974.962C58.8298 974.962 59.7637 975.246 60.4811 975.815C61.2048 976.378 61.582 977.114 61.613 978.023H59.4606C59.4235 977.597 59.2442 977.263 58.9225 977.021C58.6009 976.78 58.1711 976.66 57.633 976.66C57.1258 976.66 56.7176 976.771 56.4084 976.994C56.0991 977.21 55.9445 977.498 55.9445 977.856C55.9445 978.401 56.4146 978.787 57.3547 979.016L59.1081 979.406C60.0915 979.634 60.7935 979.956 61.214 980.37C61.6346 980.785 61.8449 981.357 61.8449 982.087C61.8449 983.015 61.4553 983.766 60.676 984.341C59.8967 984.91 58.8854 985.195 57.6423 985.195C56.4177 985.195 55.4312 984.916 54.6828 984.36C53.9406 983.797 53.5293 983.045 53.4489 982.105H55.7219C55.7899 982.557 55.994 982.903 56.3342 983.144C56.6805 983.386 57.1444 983.506 57.7258 983.506C58.2886 983.506 58.7308 983.401 59.0524 983.191C59.3802 982.974 59.5441 982.684 59.5441 982.319C59.5441 982.034 59.4421 981.808 59.238 981.641C59.0401 981.468 58.703 981.32 58.2267 981.196L56.4362 980.779C54.6117 980.352 53.6994 979.421 53.6994 977.986ZM67.7497 976.752C67.1065 976.752 66.5684 976.975 66.1355 977.42C65.7087 977.859 65.4706 978.425 65.4211 979.118H70.0134C69.9887 978.419 69.7691 977.85 69.3547 977.411C68.9403 976.972 68.4053 976.752 67.7497 976.752ZM70.0227 982.059H72.1843C72.0359 982.993 71.5627 983.751 70.7649 984.332C69.967 984.907 68.9898 985.195 67.8332 985.195C66.3612 985.195 65.2047 984.743 64.3635 983.84C63.5224 982.931 63.1018 981.691 63.1018 980.12C63.1018 978.561 63.5193 977.312 64.3542 976.372C65.1954 975.432 66.3241 974.962 67.7405 974.962C69.1321 974.962 70.2361 975.41 71.0525 976.307C71.8689 977.198 72.2771 978.391 72.2771 979.888V980.64H65.4026V980.779C65.4026 981.57 65.6252 982.207 66.0705 982.69C66.522 983.172 67.1251 983.413 67.8796 983.413C68.4115 983.413 68.8692 983.293 69.2527 983.052C69.6423 982.804 69.899 982.473 70.0227 982.059ZM84.3744 985V982.467H77.6947V980.408C78.7956 978.329 80.648 975.398 83.2518 971.613H86.6566V980.51H88.4564V982.467H86.6566V985H84.3744ZM79.8656 980.5V980.565H84.4115V973.385H84.3744C83.2425 975.024 82.3365 976.378 81.6561 977.448C80.9758 978.518 80.3789 979.536 79.8656 980.5Z" fill="white"/>
<path d="M34 1022.01C35.3047 1022.01 36.375 1020.94 36.375 1019.63C36.375 1018.33 35.3047 1017.26 34 1017.26C32.6953 1017.26 31.625 1018.33 31.625 1019.63C31.625 1020.94 32.6953 1022.01 34 1022.01ZM50.7891 1024.19C53.1406 1024.19 54.8047 1022.6 54.8047 1020.34C54.8047 1018.15 53.2422 1016.56 51.0781 1016.56C50 1016.56 49.0625 1016.97 48.5547 1017.65H48.5234L48.8672 1013.98H54.1641V1012.73H47.7109L47.0938 1019.04H48.4141C48.875 1018.25 49.7734 1017.77 50.8281 1017.77C52.3281 1017.77 53.3984 1018.86 53.3984 1020.37C53.3984 1021.89 52.3359 1022.95 50.8047 1022.95C49.4531 1022.95 48.4297 1022.12 48.3047 1020.92H46.9219C47.0391 1022.84 48.6328 1024.19 50.7891 1024.19ZM60.2188 1024.19C62.8438 1024.19 64.3594 1021.91 64.3594 1018.35C64.3594 1014.81 62.8359 1012.54 60.2188 1012.54C57.6016 1012.54 56.0625 1014.83 56.0625 1018.36C56.0625 1021.92 57.5859 1024.19 60.2188 1024.19ZM60.2188 1022.96C58.4531 1022.96 57.4766 1021.16 57.4766 1018.35C57.4766 1015.6 58.4766 1013.77 60.2188 1013.77C61.9609 1013.77 62.9453 1015.59 62.9453 1018.36C62.9453 1021.17 61.9766 1022.96 60.2188 1022.96ZM69.9219 1024.19C72.5469 1024.19 74.0625 1021.91 74.0625 1018.35C74.0625 1014.81 72.5391 1012.54 69.9219 1012.54C67.3047 1012.54 65.7656 1014.83 65.7656 1018.36C65.7656 1021.92 67.2891 1024.19 69.9219 1024.19ZM69.9219 1022.96C68.1562 1022.96 67.1797 1021.16 67.1797 1018.35C67.1797 1015.6 68.1797 1013.77 69.9219 1013.77C71.6641 1013.77 72.6484 1015.59 72.6484 1018.36C72.6484 1021.17 71.6797 1022.96 69.9219 1022.96ZM85.3672 1019.34V1018.27H80.7812V1019.5H83.9609V1019.7C83.9609 1021.59 82.5859 1022.89 80.5859 1022.89C78.2891 1022.89 76.8672 1021.13 76.8672 1018.3C76.8672 1015.51 78.2656 1013.84 80.5859 1013.84C82.1719 1013.84 83.3516 1014.7 83.8203 1016.23H85.2969C84.875 1013.98 83.0234 1012.54 80.5859 1012.54C77.4297 1012.54 75.4219 1014.78 75.4219 1018.3C75.4219 1021.89 77.4375 1024.19 80.5859 1024.19C83.5938 1024.19 85.3672 1022.38 85.3672 1019.34ZM96.1719 1024V1012.73H94.7656V1017.6H88.5781V1012.73H87.1719V1024H88.5781V1018.87H94.7656V1024H96.1719ZM104.797 1024.14C107.039 1024.14 108.555 1022.52 108.555 1019.94C108.555 1017.34 107.039 1015.73 104.797 1015.73C102.547 1015.73 101.031 1017.34 101.031 1019.94C101.031 1022.52 102.547 1024.14 104.797 1024.14ZM104.797 1022.95C103.359 1022.95 102.414 1021.85 102.414 1019.94C102.414 1018.02 103.359 1016.93 104.797 1016.93C106.234 1016.93 107.172 1018.02 107.172 1019.94C107.172 1021.85 106.234 1022.95 104.797 1022.95ZM110.367 1024H111.727V1016.99H113.383V1015.87H111.719V1014.98C111.719 1014.17 112.07 1013.78 112.805 1013.78C113.031 1013.78 113.258 1013.8 113.422 1013.83V1012.73C113.227 1012.7 112.898 1012.66 112.594 1012.66C111.094 1012.66 110.367 1013.41 110.367 1014.97V1015.87H109.234V1016.99H110.367V1024ZM127.281 1024V1012.73H125.875V1017.6H119.688V1012.73H118.281V1024H119.688V1018.87H125.875V1024H127.281ZM131.703 1022.98C130.727 1022.98 130.078 1022.48 130.078 1021.7C130.078 1020.94 130.703 1020.45 131.797 1020.38L133.969 1020.25V1020.91C133.969 1022.09 132.984 1022.98 131.703 1022.98ZM131.398 1024.14C132.492 1024.14 133.523 1023.53 134.008 1022.6H134.039V1024H135.328V1018.38C135.328 1016.77 134.125 1015.73 132.219 1015.73C130.297 1015.73 129.094 1016.81 129 1018.22H130.312C130.484 1017.42 131.141 1016.93 132.188 1016.93C133.312 1016.93 133.969 1017.52 133.969 1018.52V1019.2L131.641 1019.33C129.766 1019.44 128.695 1020.31 128.695 1021.7C128.695 1023.16 129.781 1024.14 131.398 1024.14ZM136.914 1018.12C136.914 1019.23 137.617 1019.96 139.047 1020.33L140.477 1020.7C141.391 1020.94 141.727 1021.25 141.727 1021.83C141.727 1022.56 141.047 1023.03 139.945 1023.03C138.844 1023.03 138.203 1022.58 138.055 1021.73H136.695C136.836 1023.17 138.078 1024.14 139.859 1024.14C141.758 1024.14 143.094 1023.14 143.094 1021.73C143.094 1020.53 142.5 1019.94 140.859 1019.52L139.602 1019.22C138.68 1018.98 138.25 1018.61 138.25 1018.05C138.25 1017.34 138.906 1016.84 139.898 1016.84C140.898 1016.84 141.531 1017.33 141.625 1018.11H142.922C142.859 1016.73 141.625 1015.73 139.945 1015.73C138.156 1015.73 136.914 1016.73 136.914 1018.12ZM144.578 1024H145.938V1019.27C145.938 1017.86 146.773 1016.94 148.125 1016.94C149.398 1016.94 150.047 1017.71 150.047 1019V1024H151.406V1018.75C151.406 1016.94 150.328 1015.73 148.547 1015.73C147.312 1015.73 146.422 1016.27 145.969 1017.17H145.938V1012.73H144.578V1024ZM156.625 1012.73V1024H158.031V1019.98H160.633C162.75 1019.98 164.258 1018.48 164.258 1016.34C164.258 1014.21 162.766 1012.73 160.648 1012.73H156.625ZM158.031 1013.98H160.281C161.898 1013.98 162.812 1014.85 162.812 1016.34C162.812 1017.84 161.891 1018.73 160.281 1018.73H158.031V1013.98ZM168.641 1024.14C170.883 1024.14 172.398 1022.52 172.398 1019.94C172.398 1017.34 170.883 1015.73 168.641 1015.73C166.391 1015.73 164.875 1017.34 164.875 1019.94C164.875 1022.52 166.391 1024.14 168.641 1024.14ZM168.641 1022.95C167.203 1022.95 166.258 1021.85 166.258 1019.94C166.258 1018.02 167.203 1016.93 168.641 1016.93C170.078 1016.93 171.016 1018.02 171.016 1019.94C171.016 1021.85 170.078 1022.95 168.641 1022.95ZM184.109 1015.87H182.766L181.141 1022.48H181.109L179.266 1015.87H177.953L176.117 1022.48H176.086L174.461 1015.87H173.109L175.383 1024H176.766L178.594 1017.71H178.625L180.461 1024H181.844L184.109 1015.87ZM188.484 1016.91C189.766 1016.91 190.617 1017.88 190.648 1019.24H186.234C186.32 1017.89 187.211 1016.91 188.484 1016.91ZM190.617 1021.67C190.391 1022.44 189.633 1022.96 188.602 1022.96C187.141 1022.96 186.227 1021.94 186.227 1020.38V1020.3H192.055V1019.79C192.055 1017.33 190.703 1015.73 188.508 1015.73C186.266 1015.73 184.828 1017.45 184.828 1019.97C184.828 1022.52 186.242 1024.14 188.57 1024.14C190.344 1024.14 191.719 1023.09 191.953 1021.67H190.617ZM193.43 1024H194.789V1018.94C194.789 1017.79 195.477 1017.03 196.531 1017.03C196.859 1017.03 197.148 1017.07 197.258 1017.11V1015.79C197.148 1015.77 196.945 1015.73 196.711 1015.73C195.758 1015.73 195.008 1016.3 194.742 1017.2H194.711V1015.87H193.43V1024ZM209.188 1024H210.664L206.508 1012.73H205.117L200.961 1024H202.438L203.57 1020.77H208.055L209.188 1024ZM205.789 1014.44H205.836L207.641 1019.58H203.984L205.789 1014.44ZM218.336 1018.54C218.164 1017.08 216.953 1015.73 214.922 1015.73C212.68 1015.73 211.188 1017.37 211.188 1019.94C211.188 1022.55 212.688 1024.14 214.938 1024.14C216.781 1024.14 218.141 1023 218.352 1021.38H217.016C216.781 1022.36 216.055 1022.95 214.945 1022.95C213.539 1022.95 212.57 1021.83 212.57 1019.94C212.57 1018.09 213.523 1016.93 214.93 1016.93C216.125 1016.93 216.812 1017.66 217.008 1018.54H218.336ZM220.039 1013.91V1015.87H218.828V1016.99H220.039V1021.89C220.039 1023.45 220.617 1024.06 222.109 1024.06C222.43 1024.06 222.805 1024.04 222.969 1024V1022.86C222.875 1022.87 222.562 1022.9 222.406 1022.9C221.711 1022.9 221.398 1022.56 221.398 1021.82V1016.99H222.977V1015.87H221.398V1013.91H220.039ZM224.5 1024H225.859V1015.87H224.5V1024ZM225.18 1014.51C225.648 1014.51 226.031 1014.12 226.031 1013.66C226.031 1013.2 225.648 1012.82 225.18 1012.82C224.719 1012.82 224.336 1013.2 224.336 1013.66C224.336 1014.12 224.719 1014.51 225.18 1014.51ZM234.359 1015.87H232.945L230.695 1022.55H230.664L228.422 1015.87H226.992L229.984 1024H231.375L234.359 1015.87ZM237.953 1022.98C236.977 1022.98 236.328 1022.48 236.328 1021.7C236.328 1020.94 236.953 1020.45 238.047 1020.38L240.219 1020.25V1020.91C240.219 1022.09 239.234 1022.98 237.953 1022.98ZM237.648 1024.14C238.742 1024.14 239.773 1023.53 240.258 1022.6H240.289V1024H241.578V1018.38C241.578 1016.77 240.375 1015.73 238.469 1015.73C236.547 1015.73 235.344 1016.81 235.25 1018.22H236.562C236.734 1017.42 237.391 1016.93 238.438 1016.93C239.562 1016.93 240.219 1017.52 240.219 1018.52V1019.2L237.891 1019.33C236.016 1019.44 234.945 1020.31 234.945 1021.7C234.945 1023.16 236.031 1024.14 237.648 1024.14ZM243.742 1013.91V1015.87H242.531V1016.99H243.742V1021.89C243.742 1023.45 244.32 1024.06 245.812 1024.06C246.133 1024.06 246.508 1024.04 246.672 1024V1022.86C246.578 1022.87 246.266 1022.9 246.109 1022.9C245.414 1022.9 245.102 1022.56 245.102 1021.82V1016.99H246.68V1015.87H245.102V1013.91H243.742ZM248.203 1024H249.562V1015.87H248.203V1024ZM248.883 1014.51C249.352 1014.51 249.734 1014.12 249.734 1013.66C249.734 1013.2 249.352 1012.82 248.883 1012.82C248.422 1012.82 248.039 1013.2 248.039 1013.66C248.039 1014.12 248.422 1014.51 248.883 1014.51ZM254.766 1024.14C257.008 1024.14 258.523 1022.52 258.523 1019.94C258.523 1017.34 257.008 1015.73 254.766 1015.73C252.516 1015.73 251 1017.34 251 1019.94C251 1022.52 252.516 1024.14 254.766 1024.14ZM254.766 1022.95C253.328 1022.95 252.383 1021.85 252.383 1019.94C252.383 1018.02 253.328 1016.93 254.766 1016.93C256.203 1016.93 257.141 1018.02 257.141 1019.94C257.141 1021.85 256.203 1022.95 254.766 1022.95ZM259.898 1024H261.258V1019.22C261.258 1017.84 262.094 1016.94 263.375 1016.94C264.625 1016.94 265.242 1017.66 265.242 1018.97V1024H266.602V1018.73C266.602 1016.88 265.57 1015.73 263.789 1015.73C262.531 1015.73 261.664 1016.3 261.211 1017.17H261.18V1015.87H259.898V1024Z" fill="white" fill-opacity="0.8"/>
<rect x="0.5" y="949.5" width="316" height="104" rx="9.5" stroke="white" stroke-linejoin="round" stroke-dasharray="7 7"/>
<circle cx="337.5" cy="950.5" r="8.5" fill="#DB00FF"/>
<g filter="url(#filter4_d_1_6901)">
<circle cx="442.154" cy="950.154" r="23.1541" fill="#DB00FF"/>
</g>
<path d="M443.099 959.788V956.316H433.941V953.493C435.451 950.644 437.99 946.624 441.56 941.435H446.228V953.632H448.695V956.316H446.228V959.788H443.099ZM436.917 953.62V953.709H443.15V943.864H443.099C441.547 946.111 440.305 947.968 439.372 949.435C438.439 950.902 437.621 952.297 436.917 953.62Z" fill="white"/>
<defs>
<filter id="filter0_d_1_6901" x="387.163" y="150.163" width="109.982" height="109.982" filterUnits="userSpaceOnUse" color-interpolation-filters="sRGB">
<feFlood flood-opacity="0" result="BackgroundImageFix"/>
<feColorMatrix in="SourceAlpha" type="matrix" values="0 0 0 0 0 0 0 0 0 0 0 0 0 0 0 0 0 0 127 0" result="hardAlpha"/>
<feOffset/>
<feGaussianBlur stdDeviation="15.9184"/>
<feComposite in2="hardAlpha" operator="out"/>
<feColorMatrix type="matrix" values="0 0 0 0 0.858824 0 0 0 0 0 0 0 0 0 1 0 0 0 1 0"/>
<feBlend mode="normal" in2="BackgroundImageFix" result="effect1_dropShadow_1_6901"/>
<feBlend mode="normal" in="SourceGraphic" in2="effect1_dropShadow_1_6901" result="shape"/>
</filter>
<filter id="filter1_d_1_6901" x="387.163" y="646.163" width="109.982" height="109.982" filterUnits="userSpaceOnUse" color-interpolation-filters="sRGB">
<feFlood flood-opacity="0" result="BackgroundImageFix"/>
<feColorMatrix in="SourceAlpha" type="matrix" values="0 0 0 0 0 0 0 0 0 0 0 0 0 0 0 0 0 0 127 0" result="hardAlpha"/>
<feOffset/>
<feGaussianBlur stdDeviation="15.9184"/>
<feComposite in2="hardAlpha" operator="out"/>
<feColorMatrix type="matrix" values="0 0 0 0 0.858824 0 0 0 0 0 0 0 0 0 1 0 0 0 1 0"/>
<feBlend mode="normal" in2="BackgroundImageFix" result="effect1_dropShadow_1_6901"/>
<feBlend mode="normal" in="SourceGraphic" in2="effect1_dropShadow_1_6901" result="shape"/>
</filter>
<filter id="filter2_d_1_6901" x="387.163" y="1142.16" width="109.982" height="109.982" filterUnits="userSpaceOnUse" color-interpolation-filters="sRGB">
<feFlood flood-opacity="0" result="BackgroundImageFix"/>
<feColorMatrix in="SourceAlpha" type="matrix" values="0 0 0 0 0 0 0 0 0 0 0 0 0 0 0 0 0 0 127 0" result="hardAlpha"/>
<feOffset/>
<feGaussianBlur stdDeviation="15.9184"/>
<feComposite in2="hardAlpha" operator="out"/>
<feColorMatrix type="matrix" values="0 0 0 0 0.858824 0 0 0 0 0 0 0 0 0 1 0 0 0 1 0"/>
<feBlend mode="normal" in2="BackgroundImageFix" result="effect1_dropShadow_1_6901"/>
<feBlend mode="normal" in="SourceGraphic" in2="effect1_dropShadow_1_6901" result="shape"/>
</filter>
<filter id="filter3_d_1_6901" x="387.163" y="399.163" width="109.982" height="109.982" filterUnits="userSpaceOnUse" color-interpolation-filters="sRGB">
<feFlood flood-opacity="0" result="BackgroundImageFix"/>
<feColorMatrix in="SourceAlpha" type="matrix" values="0 0 0 0 0 0 0 0 0 0 0 0 0 0 0 0 0 0 127 0" result="hardAlpha"/>
<feOffset/>
<feGaussianBlur stdDeviation="15.9184"/>
<feComposite in2="hardAlpha" operator="out"/>
<feColorMatrix type="matrix" values="0 0 0 0 0.858824 0 0 0 0 0 0 0 0 0 1 0 0 0 1 0"/>
<feBlend mode="normal" in2="BackgroundImageFix" result="effect1_dropShadow_1_6901"/>
<feBlend mode="normal" in="SourceGraphic" in2="effect1_dropShadow_1_6901" result="shape"/>
</filter>
<filter id="filter4_d_1_6901" x="387.163" y="895.163" width="109.982" height="109.982" filterUnits="userSpaceOnUse" color-interpolation-filters="sRGB">
<feFlood flood-opacity="0" result="BackgroundImageFix"/>
<feColorMatrix in="SourceAlpha" type="matrix" values="0 0 0 0 0 0 0 0 0 0 0 0 0 0 0 0 0 0 127 0" result="hardAlpha"/>
<feOffset/>
<feGaussianBlur stdDeviation="15.9184"/>
<feComposite in2="hardAlpha" operator="out"/>
<feColorMatrix type="matrix" values="0 0 0 0 0.858824 0 0 0 0 0 0 0 0 0 1 0 0 0 1 0"/>
<feBlend mode="normal" in2="BackgroundImageFix" result="effect1_dropShadow_1_6901"/>
<feBlend mode="normal" in="SourceGraphic" in2="effect1_dropShadow_1_6901" result="shape"/>
</filter>
</defs>
</svg>
