<svg width="31" height="24" viewBox="0 0 31 24" fill="none" xmlns="http://www.w3.org/2000/svg">
<path d="M29.6665 4.91832C29.2103 3.95587 28.5526 3.08369 27.7301 2.35064C26.907 1.61539 25.9365 1.0311 24.8714 0.62954C23.767 0.211494 22.5825 -0.0024864 21.3866 2.1797e-05C19.7088 2.1797e-05 18.0719 0.418667 16.6494 1.20944C16.3091 1.39861 15.9858 1.60638 15.6795 1.83276C15.3732 1.60638 15.0499 1.39861 14.7096 1.20944C13.287 0.418667 11.6501 2.1797e-05 9.97235 2.1797e-05C8.76423 2.1797e-05 7.59354 0.210895 6.48751 0.62954C5.41892 1.03268 4.45582 1.61258 3.62885 2.35064C2.80527 3.08287 2.14738 3.95524 1.69245 4.91832C1.21941 5.91997 0.977783 6.98364 0.977783 8.07832C0.977783 9.11097 1.2092 10.187 1.66863 11.2817C2.05318 12.1965 2.6045 13.1455 3.30895 14.1037C4.42519 15.6201 5.96002 17.2017 7.86579 18.8049C11.0239 21.4625 14.1514 23.2984 14.2842 23.3728L15.0907 23.8442C15.4481 24.0519 15.9075 24.0519 16.2648 23.8442L17.0714 23.3728C17.2041 23.2953 20.3282 21.4625 23.4897 18.8049C25.3955 17.2017 26.9303 15.6201 28.0466 14.1037C28.751 13.1455 29.3057 12.1965 29.6869 11.2817C30.1463 10.187 30.3777 9.11097 30.3777 8.07832C30.3811 6.98364 30.1395 5.91997 29.6665 4.91832Z" fill="#FF2525"/>
</svg>
