<svg width="31" height="24" viewBox="0 0 31 24" fill="none" xmlns="http://www.w3.org/2000/svg">
<mask id="path-1-inside-1_1_7053" fill="white">
<path d="M29.4888 4.91832C29.0326 3.95587 28.3748 3.08369 27.5523 2.35064C26.7292 1.61539 25.7588 1.0311 24.6937 0.62954C23.5893 0.211494 22.4047 -0.0024864 21.2088 2.1797e-05C19.5311 2.1797e-05 17.8942 0.418667 16.4716 1.20944C16.1313 1.39861 15.808 1.60638 15.5017 1.83276C15.1954 1.60638 14.8721 1.39861 14.5318 1.20944C13.1093 0.418667 11.4724 2.1797e-05 9.79462 2.1797e-05C8.5865 2.1797e-05 7.41581 0.210895 6.30978 0.62954C5.24118 1.03268 4.27809 1.61258 3.45112 2.35064C2.62754 3.08287 1.96964 3.95524 1.51471 4.91832C1.04167 5.91997 0.800049 6.98364 0.800049 8.07832C0.800049 9.11097 1.03146 10.187 1.49089 11.2817C1.87545 12.1965 2.42676 13.1455 3.13122 14.1037C4.24746 15.6201 5.78229 17.2017 7.68806 18.8049C10.8462 21.4625 13.9737 23.2984 14.1064 23.3728L14.913 23.8442C15.2703 24.0519 15.7297 24.0519 16.0871 23.8442L16.8936 23.3728C17.0264 23.2953 20.1505 21.4625 23.312 18.8049C25.2178 17.2017 26.7526 15.6201 27.8688 14.1037C28.5733 13.1455 29.128 12.1965 29.5092 11.2817C29.9686 10.187 30.2 9.11097 30.2 8.07832C30.2034 6.98364 29.9618 5.91997 29.4888 4.91832V4.91832Z"/>
</mask>
<path d="M29.4888 4.91832C29.0326 3.95587 28.3748 3.08369 27.5523 2.35064C26.7292 1.61539 25.7588 1.0311 24.6937 0.62954C23.5893 0.211494 22.4047 -0.0024864 21.2088 2.1797e-05C19.5311 2.1797e-05 17.8942 0.418667 16.4716 1.20944C16.1313 1.39861 15.808 1.60638 15.5017 1.83276C15.1954 1.60638 14.8721 1.39861 14.5318 1.20944C13.1093 0.418667 11.4724 2.1797e-05 9.79462 2.1797e-05C8.5865 2.1797e-05 7.41581 0.210895 6.30978 0.62954C5.24118 1.03268 4.27809 1.61258 3.45112 2.35064C2.62754 3.08287 1.96964 3.95524 1.51471 4.91832C1.04167 5.91997 0.800049 6.98364 0.800049 8.07832C0.800049 9.11097 1.03146 10.187 1.49089 11.2817C1.87545 12.1965 2.42676 13.1455 3.13122 14.1037C4.24746 15.6201 5.78229 17.2017 7.68806 18.8049C10.8462 21.4625 13.9737 23.2984 14.1064 23.3728L14.913 23.8442C15.2703 24.0519 15.7297 24.0519 16.0871 23.8442L16.8936 23.3728C17.0264 23.2953 20.1505 21.4625 23.312 18.8049C25.2178 17.2017 26.7526 15.6201 27.8688 14.1037C28.5733 13.1455 29.128 12.1965 29.5092 11.2817C29.9686 10.187 30.2 9.11097 30.2 8.07832C30.2034 6.98364 29.9618 5.91997 29.4888 4.91832V4.91832Z" stroke="white" stroke-width="3" mask="url(#path-1-inside-1_1_7053)"/>
</svg>
